<svg xmlns="http://www.w3.org/2000/svg" width="254" height="254" fill="none"><circle cx="127" cy="127" r="127" fill="color(display-p3 .5765 .5686 .9686)"/><path fill="#fff" d="M103.39 133.194c10.89-1.768 18.285-12.03 16.518-22.92s-12.03-18.285-22.92-16.518-18.285 12.029-16.518 22.92 12.03 18.285 22.92 16.518m52.213 0a19.98 19.98 0 0 0 16.517-22.92 19.98 19.98 0 0 0-22.919-16.518 19.98 19.98 0 0 0-16.518 22.92c1.768 10.89 12.029 18.285 22.92 16.518M126.262 31.012c-54.241 0-98.218 44.814-98.203 100.077h25.088c0-41.415 32.475-74.994 73.115-74.994s73.116 33.579 73.116 74.994h25.088c.009-55.263-43.967-100.077-98.204-100.077"/></svg>