<svg xmlns="http://www.w3.org/2000/svg" width="1080" height="1080" viewBox="0 0 185.6 184.9"><defs><clipPath id="a"><path stroke-width=".992" d="M53.725 178.054v-24.695h183.713v49.389H53.725Z"/></clipPath></defs><circle cx="145.552" cy="137.363" r="93.266" fill="#ff5a00" transform="translate(-51.58 -43.708)scale(.99116)"/><g fill="#fff"><path d="M31.674 37.721c1.953-2.025 6.213-5.939 8.482-7.793 2.206-1.802 9.519-6.575 11.275-7.359 1.94-.866 2.547-1.748 2.124-3.084-.53-1.67-2.189-1.467-6.15.757-6.621 3.717-17.476 12.586-19.865 16.23-1.13 1.725-.46 3.03 1.706 3.32.21.028 1.302-.904 2.427-2.071m-8.14 10.4c1.603-2.335 1.691-2.617 1.143-3.64-.401-.751-.966-1.11-1.748-1.11-.915 0-1.495.516-2.793 2.489-1.739 2.641-1.976 3.618-1.09 4.503 1.147 1.147 2.694.375 4.489-2.242"/><path d="M31.606 38.028c4.432-4.812 15.241-13.047 19.829-15.106 2.025-.91 2.862-2.228 2.329-3.667-.607-1.64-1.962-1.673-4.95-.121-3.393 1.762-8.443 5.132-12.227 8.16-3.522 2.818-10.149 9.586-10.149 10.365 0 .952 1.398 2.185 2.478 2.185.626 0 1.66-.698 2.69-1.815M22.953 49.44c.756-1.031 1.576-2.307 1.824-2.835.68-1.452.071-3.172-1.237-3.5-1.407-.354-2.699.784-4.361 3.84-1.135 2.082-1.162 2.262-.49 3.287 1.117 1.705 2.642 1.421 4.264-.792"/><path d="M34.321 35.761c5.487-5.224 10.415-8.968 15.599-11.849 4.14-2.3 5.093-3.66 3.667-5.235-1.212-1.34-2.306-1.117-6.649 1.353-7.874 4.479-20.499 15.272-20.499 17.524 0 1.116 1.447 2.731 2.448 2.731.377 0 2.821-2.035 5.434-4.523m-10.69 13.062c1.668-2.607 1.968-4.113 1.044-5.228-.669-.807-2.238-.862-3.151-.112s-3.469 4.9-3.469 5.63c0 1.047 1.427 2.202 2.722 2.202 1.051 0 1.526-.416 2.855-2.492"/><path d="M33.033 37.267c5.243-5.471 9.959-9.113 17.232-13.309 6.534-3.769 6.333-9.938-4.686-3.273C38.96 24.689 34.249 28.439 29 33.887c-2.704 2.805-3.212 4.359-1.868 5.704 1.422 1.421 2.85.859 5.901-2.324M21.874 51.108c1.267-.888 3.682-4.736 3.682-5.868 0-1.401-1.234-2.376-2.813-2.222-1.114.109-1.694.6-3.02 2.561-1.899 2.809-2.111 4.494-.687 5.491 1.216.852 1.666.857 2.838.038"/></g><g clip-path="url(#a)" transform="matrix(.99507 0 0 .99116 -52.03 -43.708)"><circle cx="145.552" cy="137.363" r="93.266"/></g><path fill="#fff" d="M28.036 149.93v-34.076h14.045q3.782 0 6.331 1.082 2.565 1.082 3.847 3.028 1.299 1.947 1.299 4.51 0 1.946-.805 3.477-.806 1.514-2.22 2.512-1.415.999-3.273 1.398v.333q2.039.1 3.766 1.114 1.743 1.015 2.796 2.829 1.052 1.797 1.052 4.26 0 2.745-1.381 4.908-1.381 2.146-3.996 3.394-2.615 1.231-6.348 1.231zm8.14-6.638h5.032q2.648 0 3.897-1.015 1.267-1.015 1.267-2.829 0-1.314-.608-2.263-.608-.965-1.727-1.48-1.118-.533-2.681-.533h-5.18zm0-13.428h4.506q1.332 0 2.368-.449 1.036-.45 1.611-1.298.592-.848.592-2.046 0-1.714-1.201-2.696t-3.24-.982h-4.637zm34.083-18.045-.984 29.165h-8.788l-.984-29.165zm-5.388 42.63q-2.288 0-3.933-1.56-1.625-1.56-1.625-3.777 0-2.175 1.625-3.715 1.646-1.56 3.933-1.56 2.203 0 3.87 1.56 1.689 1.54 1.689 3.715 0 1.478-.791 2.689-.77 1.211-2.031 1.93-1.24.718-2.737.718m30.546-38.595h8.123v21.98q0 3.81-1.792 6.639-1.793 2.812-5 4.36-3.207 1.53-7.449 1.53-4.292 0-7.499-1.53-3.207-1.548-4.983-4.36-1.776-2.829-1.776-6.639v-21.98h8.14v21.265q0 1.763.757 3.144.773 1.381 2.153 2.163t3.207.782 3.191-.782q1.381-.782 2.154-2.163t.773-3.144zm13.48 34.076v-34.076h13.912q3.782 0 6.529 1.381 2.762 1.365 4.259 3.927 1.496 2.546 1.496 6.04 0 3.544-1.529 6.023-1.529 2.463-4.341 3.76-2.812 1.282-6.66 1.282h-8.798v-6.49h7.285q1.842 0 3.075-.482 1.25-.499 1.891-1.497.642-1.015.642-2.596 0-1.58-.643-2.612-.641-1.048-1.89-1.564-1.25-.533-3.075-.533h-4.012v27.437zm18.96-15.573 8.387 15.573h-8.88l-8.222-15.573zm10.85-11.814v-6.689h28.465v6.69H156.96v27.386h-8.025v-27.387z"/><path d="M48.385 46.031c0-.523 1.153-2.323 1.738-3.334.335-.579 1.536-1.966 2.275-2.693 2.318-2.281 4.582-2.956 7.902-2.956 2.83 0 5.421.614 7.493 2.288 1.16.938 2.387 2.47 2.968 3.854.296.977.464 2.609.269 2.609-.067 0-.329-.171-.582-.38-1.58-1.303-3.481-2.278-5.678-2.91-1.13-.325-1.655-.373-3.913-.363-2.289.011-2.8.063-4.175.44-1.926.527-4.026 1.427-6.344 2.719l-1.859.983c-.051 0-.094-.115-.094-.256zm65.439 0c0-.523 1.153-2.323 1.738-3.334.335-.579 1.536-1.966 2.275-2.693 2.318-2.281 4.582-2.956 7.902-2.956 2.83 0 5.421.614 7.492 2.288 1.16.938 2.388 2.47 2.969 3.854.295.977.464 2.609.269 2.609-.067 0-.329-.171-.583-.38-1.579-1.303-3.48-2.278-5.677-2.91-1.13-.325-1.655-.373-3.913-.363-2.289.011-2.8.063-4.175.44-1.926.527-4.026 1.427-6.345 2.719l-1.858.983c-.052 0-.094-.115-.094-.256z"/><ellipse cx="59.749" cy="76.517" rx="18.905" ry="22.54"/><ellipse cx="59.749" cy="76.517" fill="#fff" rx="16.142" ry="20.068"/><ellipse cx="59.749" cy="83.061" rx="13.088" ry="14.833"/><ellipse cx="65.421" cy="73.464" fill="#fff" rx="6.253" ry="6.108"/><ellipse cx="125.187" cy="76.808" rx="18.905" ry="22.54"/><ellipse cx="125.187" cy="76.808" fill="#fff" rx="16.142" ry="20.068"/><ellipse cx="125.187" cy="83.352" rx="13.088" ry="14.833"/><ellipse cx="130.859" cy="73.755" fill="#fff" rx="6.253" ry="6.108"/></svg>