<svg xmlns="http://www.w3.org/2000/svg" width="2040" height="2040" shape-rendering="geometricPrecision" image-rendering="optimizeQuality" fill-rule="evenodd">
  <path fill="#cc6700" d="M993.5.5c281.63-2.583 524.96 91.25 730 281.5 182.64 178.147 286.47 394.98 311.5 650.5 18.26 243.34-40.74 465.67-177 667-138.71 195.61-323.21 328.45-553.5 398.5-240.16 66.6-474.494 50.27-703-49-251.522-117.52-429.022-305.02-532.5-562.5-91.295-244.65-91.295-489.316 0-734C163.762 415.41 323.595 236.577 548.5 116 688.154 43.837 836.487 5.337 993.5.5Z" opacity=".999"/>
  <path fill="#412401" d="M973.5 73.5c232.11-7.784 440.44 57.716 625 196.5 176.32 139.319 291.16 318.819 344.5 538.5 49.85 232.91 19.18 454.57-92 665-119.69 212.67-294.69 360-525 442-226.61 74.32-450.441 66.82-671.5-22.5-185.14-78.81-331.306-203.31-438.5-373.5-125.58-207.65-167.913-431.31-127-671C137.206 604.769 259.706 408.269 456.5 259c153.856-112.238 326.19-174.072 517-185.5Z"/>
  <path fill="#d97800" d="M970.5 88.5c221.68-8.036 422.34 52.131 602 180.5 187.26 141.47 307.1 327.304 359.5 557.5 41.12 206.17 17.45 404.5-71 595-93.4 190.73-234.56 334.56-423.5 431.5-207.18 100.95-422.85 124.29-647 70-231.977-62.1-414.811-192.27-548.5-390.5-128.724-199.92-176.39-417.92-143-654C138.182 643.93 248.349 450.763 429.5 299c157.702-126.98 338.035-197.147 541-210.5Z"/>
  <path fill="#010000" d="M1089.5 393.5a2110.44 2110.44 0 0 1 78 1 1074.6 1074.6 0 0 1 49 3c4.42 1.472 9.09 2.138 14 2 3.12.979 6.46 1.313 10 1 9.11 1.968 18.44 3.301 28 4 3.79 1.117 7.79 1.783 12 2 .42.722 1.08 1.222 2 1.5a347.94 347.94 0 0 0 17 2.5c5.13 1.413 10.46 2.413 16 3h1c3.47 1.025 7.14 1.692 11 2 5.13 1.413 10.46 2.413 16 3a281.581 281.581 0 0 0 38 6c3.91.811 7.91 1.811 12 3 .92-.043 1.58-.376 2-1 25.55-16.11 52.55-29.61 81-40.5 84.05-25.059 141.55 3.441 172.5 85.5a428.253 428.253 0 0 1 12 49 83.494 83.494 0 0 0 4.5 12c.76 4.284 2.09 8.284 4 12 3.13 12.058 6.46 24.058 10 36 .74 4.305 2.07 8.305 4 12a46.71 46.71 0 0 1 2 9c.19 3.355 1.19 6.355 3 9a1744.22 1744.22 0 0 0 11 39c.96 4.55 2.3 8.883 4 13 .91 5.993 2.58 11.66 5 17 .13 1.716.46 3.383 1 5-.24 2.398.43 4.398 2 6-.09 2.652.58 4.985 2 7l5 18c-.09 2.652.58 4.985 2 7a435.25 435.25 0 0 1 9 36c.79 7.321 2.46 14.321 5 21a525.973 525.973 0 0 1 7 40c-.09 2.652.58 4.985 2 7l8 36a32.51 32.51 0 0 0 .5 8c.38.556.88.889 1.5 1-.17 2.121.16 4.121 1 6a191.88 191.88 0 0 0 5 24c2.12 8.791 3.78 17.791 5 27 .98 7.858 2.31 15.524 4 23v1a501 501 0 0 0 4 35c.32 9.842.99 19.51 2 29v59c0 9.02-.33 18.02-1 27-1.64 8.12-2.64 16.45-3 25-1.04 4.94-1.71 9.94-2 15-1.72 3.34-2.38 7.01-2 11v1c-1.77 6.12-3.11 12.45-4 19-.65 1.94-.98 3.94-1 6-1.42 2.01-2.09 4.35-2 7-1.42 2.01-2.09 4.35-2 7-.99 3.58-1.65 7.24-2 11l-3 10c-1.97 2.58-2.97 5.58-3 9l-3 8c-2.57 5.72-4.57 11.72-6 18-1.58 1.64-2.25 3.64-2 6-1.41.47-2.07 1.47-2 3v2c-2.33 1.68-3.33 4.01-3 7-.67 0-1 .33-1 1-1.57 1.6-2.24 3.6-2 6-.67 0-1 .33-1 1a99.678 99.678 0 0 0-8 18c-2.78 3.9-4.78 8.24-6 13-1.84 2.35-3.17 5.02-4 8a315.453 315.453 0 0 0-15 30c-3.09 3.85-5.43 8.18-7 13a213.23 213.23 0 0 0-10 17c-2.5 2.99-4.5 6.33-6 10l-25 36c-2.09 1.08-3.42 2.75-4 5-1.76.76-2.76 2.1-3 4-4.28 3.25-7.62 7.25-10 12-2.74 1.74-4.74 4.07-6 7-4.73 3.73-8.73 8.06-12 13-4.67 4-9 8.33-13 13l-28 25-38 29c-3.39 1.03-6.06 3.03-8 6-2.17.25-3.84 1.25-5 3-3.55 1.22-6.55 3.22-9 6a24.84 24.84 0 0 0-8 5c-2.17.25-3.84 1.25-5 3-2.17.25-3.84 1.25-5 3-2.17.25-3.84 1.25-5 3a144.58 144.58 0 0 0-20 11c-5.68 2.17-11.02 4.84-16 8-2.91.61-5.24 1.94-7 4-2.99-.33-5.32.67-7 3-2.66.43-4.99 1.43-7 3-4.99 1.43-9.66 3.43-14 6-4.3 1.15-8.3 2.82-12 5a60.65 60.65 0 0 0-7 3c-6.08 1.54-11.74 3.88-17 7a114.69 114.69 0 0 0-13 5l-27 9.5c-1.44.38-2.44 1.21-3 2.5h-2l-40 14-13 4c-4.76.27-9.1 1.6-13 4h-1c-5.04.42-9.71 1.76-14 4-2.06.02-4.06.35-6 1-8.55 1.55-16.88 3.55-25 6-9.65 1.56-18.98 3.89-28 7h-1c-8.61 1.26-16.95 3.26-25 6a554.16 554.16 0 0 0-39 10c-2.4-.24-4.4.43-6 2-3.28-.08-6.28.59-9 2-4.76.27-9.1 1.6-13 4-7.97 1.24-15.64 3.24-23 6-13.37 2.17-26.7 4.67-40 7.5-.56.38-.89.88-1 1.5h-1c-5.69-.26-11.03.74-16 3h-4c-4.62.26-8.96 1.26-13 3h-3c-5.252.36-10.252 1.36-15 3-1.792-.13-3.458.2-5 1-6.598.12-12.931 1.12-19 3-2.706.08-5.373.41-8 1-8.612.38-16.945 1.71-25 4-4.681.17-9.348.5-14 1a742.726 742.726 0 0 1-40 3 730.61 730.61 0 0 1-85-3 192.49 192.49 0 0 1-34-7 166.035 166.035 0 0 0-14-4c-1.533-1.75-3.533-2.75-6-3a82.747 82.747 0 0 1-16-6c-2.557-2.11-5.557-3.44-9-4-33.625-17.92-63.958-40.58-91-68a373.21 373.21 0 0 0-23-23c-3.333-4-7-7.67-11-11-5.609-7.28-11.942-13.94-19-20a11.46 11.46 0 0 0-4-4c-3.27-4.94-7.27-9.27-12-13-1.93-3.6-4.597-6.6-8-9a11.46 11.46 0 0 0-4-4c-3.939-5.61-8.606-10.61-14-15a337.66 337.66 0 0 0-27-26.5 1159.907 1159.907 0 0 1-45-36l-44-1.5c-5.723-1.92-11.723-2.92-18-3h-2c-2.015-1.42-4.348-2.09-7-2l-9-2c-2.436-1.37-5.103-2.37-8-3-40.079-13.12-72.912-36.46-98.5-70-16.591-23.18-29.424-48.18-38.5-75 .09-2.65-.576-4.99-2-7a61.442 61.442 0 0 0-3-13c-.176-3.23-.843-6.23-2-9v-2c.09-2.65-.576-4.99-2-7v-5c.285-3.33-.382-6.33-2-9a460.02 460.02 0 0 1 0-58l7-39 2-9c1.574-1.6 2.241-3.6 2-6 7.951-27.89 20.117-53.56 36.5-77a389.86 389.86 0 0 1 54.5-60.5 2107.232 2107.232 0 0 0 72-61.5c2.087-1.085 3.42-2.751 4-5l9-12c1.406-.473 2.073-1.473 2-3a302.632 302.632 0 0 0 10-21c1.406-.473 2.073-1.473 2-3a20.69 20.69 0 0 0 1-5c2.084-2.553 3.417-5.553 4-9a600.246 600.246 0 0 1 12-37c1.424-2.015 2.09-4.348 2-7v-1c1.745-1.533 2.745-3.533 3-6a29.417 29.417 0 0 0 2-7c1.112-2.099 1.779-4.433 2-7a389.443 389.443 0 0 1 18.5-52c31.576-68.712 75.243-129.045 131-181a225.09 225.09 0 0 1 0-18c15.431-68.324 41.765-131.991 79-191 27.711-41.935 64.211-73.768 109.5-95.5 24.86-11.089 50.86-15.089 78-12a203.96 203.96 0 0 1 66 19c24.659 11.988 47.993 25.988 70 42a2459.976 2459.976 0 0 0 76 56c5.08.778 10.08.611 15-.5z"/>
  <path fill="#ca6f00" d="M963.5 406.5a360.072 360.072 0 0 0-23 6 68.752 68.752 0 0 0-11 2c-2.652-.09-4.985.576-7 2-1.599-.268-2.932.066-4 1-2.652-.09-4.985.576-7 2a186.133 186.133 0 0 0-19 5c-3.662.223-6.995 1.223-10 3a1094.495 1094.495 0 0 0-61 21c-2.897.629-5.564 1.629-8 3a84.6 84.6 0 0 0-16 7c-2.589-.039-4.589.961-6 3a590.32 590.32 0 0 0-96.5 53c15.676-50.998 42.843-94.831 81.5-131.5 16.285-14.978 35.285-24.978 57-30 16.846-2.058 33.179-.058 49 6 29.561 11.769 56.561 27.603 81 47.5Z"/>
  <path fill="#804700" d="M1089.5 393.5a866.435 866.435 0 0 1 72-.5c2.21.191 4.21.691 6 1.5a2110.44 2110.44 0 0 0-78-1Z"/>
  <path fill="#834901" d="M1216.5 397.5c4.93-.271 9.6.396 14 2-4.91.138-9.58-.528-14-2Z"/>
  <path fill="#9e5800" d="m1240.5 400.5 27 2.5c.56.383.89.883 1 1.5-9.56-.699-18.89-2.032-28-4z"/>
  <path fill="#5a3203" d="M1280.5 406.5c6.62.597 12.95 1.931 19 4a347.94 347.94 0 0 1-17-2.5c-.92-.278-1.58-.778-2-1.5Z"/>
  <path fill="#6b3b01" d="M963.5 406.5c.543.06.876.393 1 1a191.772 191.772 0 0 1-24 5 360.072 360.072 0 0 1 23-6Z"/>
  <use href="#a" fill="#764102"/>
  <path fill="#7f4601" d="M1316.5 413.5c3.99-.384 7.66.283 11 2-3.86-.308-7.53-.975-11-2Z"/>
  <use href="#b" fill="#6a3a01"/>
  <use href="#a" x="28" y="5" fill="#784302"/>
  <use href="#b" x="-11" y="3" fill="#4c2a03"/>
  <path fill="#8a4c01" d="M1381.5 424.5c4.8-.15 9.47.516 14 2-.42.624-1.08.957-2 1a157.886 157.886 0 0 0-12-3Z"/>
  <path fill="#502c02" d="M892.5 424.5c-3.005 1.777-6.338 2.777-10 3 3.005-1.777 6.338-2.777 10-3Z"/>
  <path fill="#502c03" d="M821.5 448.5c-2.117 2.155-4.784 3.155-8 3 2.436-1.371 5.103-2.371 8-3Z"/>
  <path fill="#cb6f00" d="m1644.5 762.5 2 2a795.681 795.681 0 0 1 12 61c-.09 2.652.58 4.985 2 7a630 630 0 0 0 4 22c-.09 2.652.58 4.985 2 7v1a32.51 32.51 0 0 0 .5 8c.38.556.88.889 1.5 1a316.8 316.8 0 0 1 6 31 93.152 93.152 0 0 0 3.5 21c.38.556.88.889 1.5 1a87.366 87.366 0 0 1 2 13 680.02 680.02 0 0 0 7 43v4c.25 5.007.58 10.007 1 15a729.29 729.29 0 0 1 0 107v2c-.72.42-1.22 1.08-1.5 2l-1.5 19v2c-.62.11-1.12.44-1.5 1-.5 2.65-.66 5.31-.5 8v1c-1.74 4.04-2.74 8.38-3 13v2c-3.37 6.19-5.37 12.85-6 20a71.852 71.852 0 0 1-4 16c-2.62 4.54-4.29 9.54-5 15-1.19 3.8-2.53 7.47-4 11-1.37 2.44-2.37 5.1-3 8-1.88 6.5-4.21 12.84-7 19-1.75 1.53-2.75 3.53-3 6-9.9 24.38-21.56 47.71-35 70-1.75 1.16-2.75 2.83-3 5a1436.25 1436.25 0 0 0-21.5 33 31.377 31.377 0 0 0-8.5 10c-2.09 1.08-3.42 2.75-4 5-2.09 1.08-3.42 2.75-4 5a75.412 75.412 0 0 0-8 9c-2.09 1.08-3.42 2.75-4 5a2.99 2.99 0 0 0-2 2c-2.74 1.74-4.74 4.07-6 7a561.582 561.582 0 0 1-67 59c-3.39 1.03-6.06 3.03-8 6-3.04 1.18-5.71 2.85-8 5-2.7.34-4.7 1.68-6 4-4.87 1.93-9.2 4.6-13 8-2.17.25-3.84 1.25-5 3-16.89 8.94-33.89 17.61-51 26a36.91 36.91 0 0 0-14 6c-1.62.54-3.28.87-5 1 26.03-30.36 48.86-63.03 68.5-98 24.08-43.3 34.41-89.63 31-139-3.59-30.12-14.59-57.12-33-81a416.956 416.956 0 0 0-18-21l-61-59c-20.9-22.13-35.9-47.79-45-77a1656.84 1656.84 0 0 1-11-80c-8.77-54.717-30.11-103.717-64-147-19.46-22.634-42.63-40.301-69.5-53a428.406 428.406 0 0 1 33-22.5c-30.25-11.515-61.58-16.848-94-16a1752.008 1752.008 0 0 1-63 12c-11.05.879-22.05.546-33-1a677.773 677.773 0 0 0-43-11c-15.074-2.92-27.74 1.247-38 12.5a995.424 995.424 0 0 1-115-10c-.432-8.369-4.099-14.869-11-19.5a81.3 81.3 0 0 0-19-7 1864.287 1864.287 0 0 0-64-6c-32.185-4.785-62.852-14.285-92-28.5a102.101 102.101 0 0 1 12-12c4.605-2.936 8.605-6.602 12-11 57.908-53.84 123.908-95.173 198-124a18.453 18.453 0 0 0 6-.5l24-10.5h1a829.579 829.579 0 0 1 22-5.5l9-4.5a160.549 160.549 0 0 1 27-7 254.992 254.992 0 0 0 27-4.5c.556-.383.889-.883 1-1.5 5.433-1.617 11.1-2.617 17-3a402.254 402.254 0 0 0 30-5c3.23-.914 6.56-1.247 10-1 13.54-.224 26.87-1.224 40-3h2a1629.5 1629.5 0 0 1 133 4h5c4.42 1.472 9.09 2.138 14 2a796.147 796.147 0 0 1 68 10l6 2-186 120.5c-23.65 21.088-23.98 42.421-1 64 14.32 8.664 28.65 8.664 43 0a2000.998 2000.998 0 0 1 113-73 9973.29 9973.29 0 0 0 140-95 803.978 803.978 0 0 1 80-48c16.84-7.902 34.51-10.902 53-9 17.5 8.843 29.33 22.676 35.5 41.5a238.45 238.45 0 0 1 10.5 74.5 869.374 869.374 0 0 1-4.5 72.5 15532.121 15532.121 0 0 1-30 231c-2.86 24.809 7.64 40.642 31.5 47.5 24.69.647 39.19-11.186 43.5-35.5a7655.462 7655.462 0 0 0 16.5-122z"/>
  <path fill="#713e02" d="M797.5 458.5c-1.681 1.508-3.681 2.508-6 3 1.411-2.039 3.411-3.039 6-3Z"/>
  <path fill="#6b3b02" d="M1071.5 475.5c-13.13 1.776-26.46 2.776-40 3 13.11-2.008 26.44-3.008 40-3Z"/>
  <path fill="#6e3c01" d="M1073.5 475.5c42.22-1.72 84.55-.886 127 2.5 2.21.191 4.21.691 6 1.5a1629.5 1629.5 0 0 0-133-4zm138 4c4.91-.138 9.58.528 14 2-4.91.138-9.58-.528-14-2z"/>
  <path fill="#5e3402" d="M1021.5 479.5a402.254 402.254 0 0 1-30 5c9.63-2.939 19.63-4.605 30-5Z"/>
  <path fill="#9d5600" d="M974.5 487.5c-.111.617-.444 1.117-1 1.5a254.992 254.992 0 0 1-27 4.5c9.033-2.844 18.366-4.844 28-6Z"/>
  <path fill="#6f3d02" d="M1293.5 491.5c2.42-.308 4.76.026 7 1-.12.607-.46.94-1 1l-6-2Z"/>
  <path fill="#915001" d="m919.5 500.5-9 4.5a829.579 829.579 0 0 0-22 5.5c9.878-4.514 20.211-7.847 31-10Z"/>
  <path fill="#8b4c01" d="m887.5 510.5-24 10.5a18.453 18.453 0 0 1-6 .5 200.681 200.681 0 0 1 30-11z"/>
  <path fill="#874b00" d="M1665.5 532.5c2.31 3.585 3.64 7.585 4 12-1.91-3.716-3.24-7.716-4-12Z"/>
  <path d="M1451.5 562.5c13.98-1.537 27.31.629 40 6.5 10.53 6.874 17.69 16.374 21.5 28.5a135.163 135.163 0 0 1 4.5 31.5l-2.5 79.5c-1.15 25.408-7.48 49.408-19 72-15.36 23.095-36.53 31.261-63.5 24.5a485.056 485.056 0 0 1-27-12 5675.21 5675.21 0 0 1-109-66c-12.39-10.628-16.22-23.795-11.5-39.5a94.442 94.442 0 0 1 9-16c39.47-37.822 82.64-70.655 129.5-98.5 9.11-4.402 18.45-7.902 28-10.5z"/>
  <path fill="#955301" d="M1679.5 580.5c.62.111 1.12.444 1.5 1a66.53 66.53 0 0 1 2.5 11c-1.93-3.695-3.26-7.695-4-12Z"/>
  <path fill="#653803" d="M1685.5 601.5c1.97 2.584 2.97 5.584 3 9-1.81-2.645-2.81-5.645-3-9Z"/>
  <path fill="#925100" d="M1699.5 649.5c2.7 3.772 4.03 8.105 4 13a74.034 74.034 0 0 1-4-13Z"/>
  <path fill="#8c4d01" d="M659.5 645.5c-3.395 4.398-7.395 8.064-12 11 3.395-4.398 7.395-8.064 12-11Z"/>
  <path fill="#905001" d="M1703.5 662.5c2.64 5.271 4.31 10.937 5 17-2.42-5.34-4.09-11.007-5-17Z"/>
  <path fill="#583103" d="M1709.5 684.5c1.57 1.602 2.24 3.602 2 6-1.57-1.602-2.24-3.602-2-6Z"/>
  <use href="#c" fill="#5e3402"/>
  <path fill="#f5dca8" d="M821.5 729.5a995.424 995.424 0 0 0 115 10c-9.264 12.11-9.264 24.276 0 36.5 7.83 5.915 16.497 10.248 26 13a371.711 371.711 0 0 0 49 11c45.21 1.514 89.21-5.152 132-20a328.496 328.496 0 0 0 31-14.5c26.87 12.699 50.04 30.366 69.5 53 33.89 43.283 55.23 92.283 64 147a1656.84 1656.84 0 0 0 11 80c9.1 29.21 24.1 54.87 45 77l61 59c6.24 6.81 12.24 13.81 18 21 18.41 23.88 29.41 50.88 33 81 3.41 49.37-6.92 95.7-31 139-19.64 34.97-42.47 67.64-68.5 98-6.2 4.46-13.2 7.3-21 8.5l-53 21.5c-9.35 2.19-18.35 5.19-27 9-5.62 1.07-10.95 2.73-16 5-3.66.22-7 1.22-10 3-2.93.07-5.59.73-8 2-4.96.72-9.63 2.05-14 4-2.65-.09-4.99.58-7 2a556.418 556.418 0 0 0-39 10c-8.32 1.16-16.32 3.16-24 6-3.02.3-6.02.8-9 1.5-.56.38-.89.88-1 1.5h-4c-2.65-.09-4.99.58-7 2h-1c-2.65-.09-4.99.58-7 2l-4 1c-10.95 2.04-21.61 4.7-32 8-4.58 1.31-9.24 2.31-14 3-6.55 1.22-12.89 2.89-19 5h-1c-7.63.89-14.97 2.56-22 5h-2c-4.65.13-8.98 1.13-13 3a152.92 152.92 0 0 0-20 3 97.7 97.7 0 0 0-14 .5 159.139 159.139 0 0 1-13 4.5c-3.54.25-6.873.92-10 2-6.922.16-13.589 1.16-20 3h-1c-6.922.16-13.589 1.16-20 3l-23 2c-21.655.85-43.322 1.18-65 1-6.443-1.59-13.11-2.59-20-3-3.71-1.64-7.71-2.3-12-2-.111-.62-.444-1.12-1-1.5a32.51 32.51 0 0 0-8-.5c-1.602-1.57-3.602-2.24-6-2-1.599.27-2.932-.07-4-1a53.797 53.797 0 0 0-11-4 53.858 53.858 0 0 1-11-4c-.746-1.84-2.079-3.18-4-4l-10-3c-15.67-7.03-30.004-16.03-43-27-1.411-2.41-3.411-4.08-6-5a32.16 32.16 0 0 1-6-3.5 187.47 187.47 0 0 1-14-13.5c-1.411-2.41-3.411-4.08-6-5l-8-8c-1.695-3.69-4.361-6.36-8-8a119.24 119.24 0 0 1-12-14c25.917 2.2 51.584.37 77-5.5 75.409-19.37 143.409-53.04 204-101 21.451-19.77 40.284-41.6 56.5-65.5a239.661 239.661 0 0 0 18.5-37c5.64.96 11.31 1.13 17 .5 2.7-.95 3.53-2.78 2.5-5.5-16.02-9.7-27.357-23.36-34-41-4.908-18.14-12.241-35.14-22-51-8.543-12.08-19.376-14.91-32.5-8.5-8.654 8.46-11.487 18.63-8.5 30.5a291.755 291.755 0 0 1-23.5 11c-3.809.83-7.143 2.5-10 5-7.887 1.95-15.22 4.95-22 9-2.467.25-4.467 1.25-6 3a178.283 178.283 0 0 1-18 7c-3.221.4-5.888 1.73-8 4-8.467 2.93-16.8 6.27-25 10-3.447.58-6.447 1.92-9 4-.992-.17-1.658.16-2 1-3.216-.15-5.883.85-8 3h-1c-4.436.91-8.436 2.58-12 5a70.457 70.457 0 0 1-9 3c-2.467.25-4.467 1.25-6 3a530.788 530.788 0 0 0-40 15c-6.015 1.23-11.682 3.23-17 6l-4 1a216.86 216.86 0 0 0-22 8c-2.065.02-4.065.35-6 1-2.398-.24-4.398.43-6 2-2.398-.24-4.398.43-6 2-2.652-.09-4.985.58-7 2-6.31.92-12.31 2.59-18 5h-1c-7.084.44-13.751 2.1-20 5a237.111 237.111 0 0 0-19 4c-6.277.08-12.277 1.08-18 3h-1l-23 3.5c-.916.28-1.582.78-2 1.5h-4c-5.922.26-11.589 1.26-17 3-22.019 4.17-44.353 6.33-67 6.5 27.287-20.95 50.787-45.45 70.5-73.5 9.716-15.1 16.383-31.43 20-49a99.696 99.696 0 0 0 1.5-19c38.846-41.38 81.179-78.55 127-111.5a1876.28 1876.28 0 0 1 124-70c54.63-33.9 55.63-69.234 3-106-19.658-11.109-40.658-18.442-63-22a321.642 321.642 0 0 0-45-4.5 505.24 505.24 0 0 0-112 17.5 2611.58 2611.58 0 0 0-96 30 661.126 661.126 0 0 0-33 13.5 228.59 228.59 0 0 0 22-34c3.729-2.143 5.396-5.477 5-10a166.732 166.732 0 0 1 6-13c3.911-7.831 6.577-16.165 8-25v-1c3.491-6.135 5.825-12.802 7-20 2.001-3.36 3.335-7.027 4-11h4c3.339.39 6.673.89 10 1.5l70 1a216.64 216.64 0 0 1 51 11 1455.732 1455.732 0 0 0 47 20c17.632 3.76 30.798-2.074 39.5-17.5 2.247-5.137 2.914-10.47 2-16-5.635-13.969-15.135-24.469-28.5-31.5-27.075-15.579-56.241-24.079-87.5-25.5a1945.684 1945.684 0 0 0-82.5 9h-8v-3a385.983 385.983 0 0 1 23.5-54 559.695 559.695 0 0 1 46.5-66.5c1-.667 2-.667 3 0l36 24c17.099 9.212 35.099 16.212 54 21a429.538 429.538 0 0 0 52 11 240.38 240.38 0 0 0 31 0c15.199-1.017 27.699-7.183 37.5-18.5a123.752 123.752 0 0 0 5.5-14z"/>
  <use href="#c" x="7" y="25" fill="#4a2903"/>
  <path fill="#010000" d="M1174.5 765.5a328.496 328.496 0 0 1-31 14.5c-42.79 14.848-86.79 21.514-132 20a371.711 371.711 0 0 1-49-11c-9.503-2.752-18.17-7.085-26-13-9.264-12.224-9.264-24.39 0-36.5 10.26-11.253 22.926-15.42 38-12.5a677.773 677.773 0 0 1 43 11 150.165 150.165 0 0 0 33 1 1752.01 1752.01 0 0 0 63-12c32.42-.848 63.75 4.485 94 16a428.406 428.406 0 0 0-33 22.5z"/>
  <path fill="#603502" d="m1646.5 764.5-2-2a8.394 8.394 0 0 1 .5-4 10.07 10.07 0 0 1 1.5 6z"/>
  <path fill="#774202" d="M1729.5 758.5c2.42 6.702 4.09 13.702 5 21-2.54-6.679-4.21-13.679-5-21Z"/>
  <use href="#c" x="30" y="129" fill="#422501"/>
  <path fill="#7a4402" d="M446.5 826.5c-.221 2.567-.888 4.901-2 7-.329-2.728.337-5.062 2-7Z"/>
  <path fill="#635944" d="M532.5 826.5v3h8c-2.787.977-5.787 1.31-9 1-.268-1.599.066-2.932 1-4Z"/>
  <use href="#c" x="-53" y="135" fill="#5c3302"/>
  <path fill="#683903" d="M442.5 840.5c-.255 2.467-1.255 4.467-3 6 .255-2.467 1.255-4.467 3-6Z"/>
  <path fill="#4f2c04" d="M439.5 847.5c.09 2.652-.576 4.985-2 7-.09-2.652.576-4.985 2-7Z"/>
  <path fill="#010101" d="M972.5 858.5c23.837-1.959 47.17.541 70 7.5a666.358 666.358 0 0 1 39 13c26.66 7.947 52.99 6.947 79-3 12.9-3.153 24.9-1.153 36 6 1.51 2.912.84 5.245-2 7-20.34 14.666-42.67 25.333-67 32a219.457 219.457 0 0 1-41 3.5 779.266 779.266 0 0 1-60-4.5c-21.15-1.773-41.817.561-62 7a3001.68 3001.68 0 0 0-58 21c-28.584 7.088-41.417-4.079-38.5-33.5 9.454-22.785 25.954-37.952 49.5-45.5 18.077-5.611 36.41-9.111 55-10.5Z"/>
  <use href="#c" x="-47" y="164" fill="#502c01"/>
  <use href="#d" fill="#713e03"/>
  <use href="#d" x="85" fill="#442704"/>
  <path fill="#958667" d="M519.5 877.5h-4c-.665 3.973-1.999 7.64-4 11a34.338 34.338 0 0 1 3-11c1.799-1.288 3.465-1.288 5 0Z"/>
  <path fill="#804702" d="M1754.5 877.5a51.827 51.827 0 0 0 2.5 4c.69 6.694 1.53 13.361 2.5 20a191.88 191.88 0 0 1-5-24Z"/>
  <path fill="#817459" d="M511.5 888.5c-1.175 7.198-3.509 13.865-7 20a176.565 176.565 0 0 1 7-20Z"/>
  <path fill="#774202" d="M425.5 891.5c-.583 3.447-1.916 6.447-4 9 .583-3.447 1.916-6.447 4-9Z"/>
  <use href="#e" fill="#633702"/>
  <path fill="#814702" d="M1674.5 902.5c2.41 7.048 4.08 14.381 5 22-.62-.111-1.12-.444-1.5-1a93.152 93.152 0 0 1-3.5-21Z"/>
  <path fill="#bfab83" d="M504.5 909.5c-1.423 8.835-4.089 17.169-8 25a231.752 231.752 0 0 1 8-25Z"/>
  <use href="#e" x="-12" y="24" fill="#613502"/>
  <path fill="#cb7000" d="M558.5 1244.5c-.509-30.52-12.843-55.02-37-73.5-25.764-16.92-54.098-26.92-85-30-38.204-3-76.204-1.5-114 4.5a4.949 4.949 0 0 1-3-.5c1.704-2.24 2.704-4.74 3-7.5 11.938-21.95 27.271-41.28 46-58a84.822 84.822 0 0 0 16-15 1132.787 1132.787 0 0 1 61-52c2-1.33 3.667-3 5-5l13-16a661.126 661.126 0 0 1 33-13.5 2611.58 2611.58 0 0 1 96-30 505.24 505.24 0 0 1 112-17.5 321.642 321.642 0 0 1 45 4.5c22.342 3.558 43.342 10.891 63 22 52.63 36.766 51.63 72.1-3 106a1876.28 1876.28 0 0 0-124 70c-45.821 32.95-88.154 70.12-127 111.5z"/>
  <path fill="#894c01" d="M1764.5 928.5c.62.111 1.12.444 1.5 1a149.398 149.398 0 0 1 2.5 22 237.615 237.615 0 0 1-4-23Z"/>
  <path fill="#442603" d="M397.5 944.5c-.58 2.249-1.913 3.915-4 5 .58-2.249 1.913-3.915 4-5Z"/>
  <path fill="#b19f7a" d="M490.5 947.5c.396 4.523-1.271 7.857-5 10 1.159-3.651 2.826-6.985 5-10Z"/>
  <path fill="#603503" d="M1681.5 937.5c3.53 14.01 5.86 28.343 7 43a680.02 680.02 0 0 1-7-43Z"/>
  <path fill="#995501" d="M1768.5 952.5c.62.111 1.12.444 1.5 1l3.5 34h-1a501 501 0 0 1-4-35z"/>
  <path fill="#593101" d="M1688.5 984.5c1.39 4.769 2.06 9.769 2 15h-1c-.42-4.993-.75-9.993-1-15Z"/>
  <path fill="#734001" d="M1772.5 987.5h1c.7 9.651 1.03 19.32 1 29a395.385 395.385 0 0 1-2-29Z"/>
  <path fill="#703d03" d="M450.5 1007.5c-1.333 2-3 3.67-5 5 .667-2.67 2.333-4.33 5-5Z"/>
  <path fill="#472701" d="M1690.5 1005.5c1.51 5.43 2.18 11.1 2 17-1.24-5.46-1.9-11.13-2-17Z"/>
  <path fill="#965200" d="M1689.5 999.5h1v6c.1 5.87.76 11.54 2 17 .17 21 0 42-.5 63-.35 7.2-1.18 14.2-2.5 21a729.29 729.29 0 0 0 0-107Z"/>
  <path fill="#8a4c02" d="M1774.5 1016.5c.81 2.13 1.31 4.46 1.5 7 .67 16 .67 32 0 48-.21 1.56-.71 2.89-1.5 4v-59Z"/>
  <path fill="#9c5600" d="M384.5 1064.5a84.822 84.822 0 0 1-16 15 84.822 84.822 0 0 1 16-15Z"/>
  <path fill="#8a4c00" d="M1689.5 1108.5c-.28 7.24-1.28 14.24-3 21l1.5-19c.28-.92.78-1.58 1.5-2z"/>
  <path fill="#9f5800" d="M1773.5 1102.5c.17 5.68 0 11.34-.5 17 .05 3.18-.78 5.84-2.5 8 .36-8.55 1.36-16.88 3-25Z"/>
  <path fill="#774102" d="M1686.5 1131.5c-.18 3.23-.84 6.23-2 9-.16-2.69 0-5.35.5-8 .38-.56.88-.89 1.5-1Zm-1364 6c-.296 2.76-1.296 5.26-3 7.5.948.48 1.948.65 3 .5-1.535 1.29-3.201 1.29-5 0 1.191-3.07 2.858-5.73 5-8Z"/>
  <path fill="#512d02" d="M1768.5 1142.5c-.31 3.86-.98 7.53-2 11-.38-3.99.28-7.66 2-11Z"/>
  <path fill="#703e02" d="M230.5 1148.5c.241 2.4-.426 4.4-2 6-.241-2.4.426-4.4 2-6Z"/>
  <path fill="#522d03" d="m1684.5 1141.5-1.5 11c-.28.92-.78 1.58-1.5 2 .26-4.62 1.26-8.96 3-13z"/>
  <path fill="#814703" d="M1681.5 1156.5c-1.1 7.09-3.1 13.76-6 20 .63-7.15 2.63-13.81 6-20Z"/>
  <path fill="#8d4e01" d="M1766.5 1154.5a67.27 67.27 0 0 1-1.5 14c-.1 2.15-.93 3.82-2.5 5 .89-6.55 2.23-12.88 4-19Z"/>
  <path fill="#744002" d="M226.5 1163.5a2540.867 2540.867 0 0 1-7 39c.558-9.07 1.724-18.07 3.5-27 .488-4.33 1.655-8.33 3.5-12Z"/>
  <path fill="#603501" d="M1761.5 1179.5c.09 2.65-.58 4.99-2 7-.09-2.65.58-4.99 2-7Z"/>
  <path fill="#4a2901" d="M1759.5 1186.5v4l-2 3c-.09-2.65.58-4.99 2-7z"/>
  <path fill="#975401" d="M1759.5 1190.5c-.72 4.96-2.05 9.63-4 14 .35-3.76 1.01-7.42 2-11l2-3z"/>
  <path fill="#7c4401" d="M1671.5 1192.5c-1.09 5.28-2.76 10.28-5 15 .71-5.46 2.38-10.46 5-15Z"/>
  <path fill="#754102" d="M1752.5 1214.5c-.19 3.36-1.19 6.36-3 9 .03-3.42 1.03-6.42 3-9Z"/>
  <path fill="#5c3202" d="M1662.5 1218.5c.15 3.22-.85 5.88-3 8 .63-2.9 1.63-5.56 3-8Z"/>
  <path fill="#8b4d01" d="M1746.5 1231.5a361.5 361.5 0 0 1-3.5 15c-.38 1.44-1.21 2.44-2.5 3 1.43-6.28 3.43-12.28 6-18z"/>
  <path fill="#6a3a01" d="M1652.5 1245.5c-.25 2.47-1.25 4.47-3 6 .25-2.47 1.25-4.47 3-6Z"/>
  <path fill="#623702" d="M1738.5 1255.5c.07 1.53-.59 2.53-2 3-.07-1.53.59-2.53 2-3Z"/>
  <path fill="#3c362a" d="M900.5 1260.5c-2.643 2.96-5.976 4.63-10 5 2.857-2.5 6.191-4.17 10-5Z"/>
  <path fill="#4c2a02" d="M219.5 1260.5c1.618 2.67 2.285 5.67 2 9-1.157-2.77-1.824-5.77-2-9Z"/>
  <path fill="#7d4502" d="M1736.5 1260.5c-.43 2.66-1.43 4.99-3 7-.33-2.99.67-5.32 3-7Z"/>
  <path fill="#804702" d="M1732.5 1268.5c.24 2.4-.43 4.4-2 6-.24-2.4.43-4.4 2-6Z"/>
  <use href="#f" fill="#625843"/>
  <use href="#g" fill="#593202"/>
  <path fill="#824802" d="M1729.5 1275.5c-1.55 5.62-3.55 11.12-6 16.5-.34 1.03-1 1.53-2 1.5 2.1-6.33 4.77-12.33 8-18Z"/>
  <use href="#h" fill="#5e5440"/>
  <path fill="#814802" d="M223.5 1283.5c1.157 2.77 1.824 5.77 2 9-.617-.11-1.117-.44-1.5-1a32.465 32.465 0 0 1-.5-8Z"/>
  <path fill="#534a39" d="M811.5 1298.5c-2.553 2.08-5.553 3.42-9 4 2.553-2.08 5.553-3.42 9-4Z"/>
  <path fill="#864a02" d="M1721.5 1293.5c-.67 5.01-2.67 9.34-6 13 1.22-4.76 3.22-9.1 6-13Z"/>
  <path fill="#6d614a" d="M800.5 1303.5c-2.436 1.37-5.103 2.37-8 3 2.117-2.15 4.784-3.15 8-3Z"/>
  <use href="#g" x="7" y="31" fill="#723f02"/>
  <path fill="#756950" d="M791.5 1306.5c-3.564 2.42-7.564 4.09-12 5 3.564-2.42 7.564-4.09 12-5Z"/>
  <use href="#f" x="-98" y="40" fill="#7f7257"/>
  <path fill="#cb6f00" d="M1001.5 1324.5a239.661 239.661 0 0 1-18.5 37c-16.216 23.9-35.049 45.73-56.5 65.5-60.591 47.96-128.591 81.63-204 101-25.416 5.87-51.083 7.7-77 5.5l-55-58c-1-3-3-5-6-6 0-.67-.333-1-1-1-2.667-4.67-6.333-8.33-11-11 4.367-1.23 8.7-2.56 13-4h2a314.576 314.576 0 0 0 32-4.5c.916-.28 1.582-.78 2-1.5l18-4c4.812.54 9.145-.46 13-3 2.652.09 4.985-.58 7-2a50.45 50.45 0 0 0 12.5-2c1.681-.11 2.848-.77 3.5-2 4.735-1.86 9.735-3.19 15-4 6.169-.83 11.835-2.83 17-6 4.844.06 9.178-1.27 13-4 2.184-2.08 4.851-3.08 8-3 4.033-.52 7.7-1.86 11-4a508.496 508.496 0 0 0 17-5.5c1.442-.38 2.442-1.21 3-2.5a44.423 44.423 0 0 1 12-4 56.477 56.477 0 0 1 10-2.5 84.427 84.427 0 0 0 3-2.5c2.467-.25 4.467-1.25 6-3 3.858-.27 7.191-1.6 10-4 2.991.33 5.324-.67 7-3h1c4.201-.72 7.868-2.39 11-5h2c3.221-.4 5.888-1.73 8-4 2.991.33 5.324-.67 7-3 2.991.33 5.324-.67 7-3 2.427-.02 4.76-.52 7-1.5 3.937-1.57 7.604-3.4 11-5.5 4.733-1.19 9.399-2.69 14-4.5 1.593-.95 2.926-2.12 4-3.5 3.416-.03 6.416-1.03 9-3v-1c5.196.18 9.529-1.48 13-5 3.665 0 6.665-1.34 9-4a53.797 53.797 0 0 1 11-4c2.467-.25 4.467-1.25 6-3 3.665 0 6.665-1.34 9-4 3.665 0 6.665-1.34 9-4a374.886 374.886 0 0 1 29-13 91.968 91.968 0 0 0 27 9z"/>
  <path fill="#915001" d="M1711.5 1314.5c-3.73 9.83-8.06 19.5-13 29-.46.8-1.12 1.13-2 1 4.51-10.35 9.51-20.35 15-30Z"/>
  <path fill="#462704" d="M1614.5 1321.5c-.09 2.35-1.09 4.01-3 5 .25-2.17 1.25-3.84 3-5Z"/>
  <use href="#i" fill="#754102"/>
  <path fill="#4f4736" d="M724.5 1332.5c-5.305 2.81-10.972 4.81-17 6 5.318-2.77 10.985-4.77 17-6Z"/>
  <use href="#i" x="-9" y="4" fill="#743f02"/>
  <use href="#f" x="59" y="62" fill="#633702"/>
  <path fill="#3d372a" d="M703.5 1339.5c-1.481 1.75-3.481 2.91-6 3.5a162.922 162.922 0 0 0-16 4.5 216.86 216.86 0 0 1 22-8Z"/>
  <use href="#i" x="-35" y="15" fill="#754002"/>
  <use href="#j" fill="#655b45"/>
  <path fill="#8c4d02" d="M901.5 1347.5c-3.471 3.52-7.804 5.18-13 5 4.155-1.9 8.489-3.57 13-5Z"/>
  <use href="#j" x="-6" y="2" fill="#59503d"/>
  <path fill="#915001" d="M1696.5 1344.5c-1.08 5.17-3.41 9.5-7 13 1.57-4.82 3.91-9.15 7-13Z"/>
  <path fill="#774102" d="M888.5 1353.5c-2.584 1.97-5.584 2.97-9 3 2.645-1.81 5.645-2.81 9-3Z"/>
  <path fill="#5b523e" d="M656.5 1354.5c-5.69 2.41-11.69 4.08-18 5 5.69-2.41 11.69-4.08 18-5Z"/>
  <path fill="#804602" d="M879.5 1356.5c-1.074 1.38-2.407 2.55-4 3.5a114.417 114.417 0 0 1-14 4.5c5.506-3.62 11.506-6.29 18-8Z"/>
  <path fill="#4f4736" d="M637.5 1359.5c-6.178 3.13-12.845 4.8-20 5 6.249-2.9 12.916-4.56 20-5Z"/>
  <path fill="#7a4302" d="M861.5 1364.5c-3.396 2.1-7.063 3.93-11 5.5-2.24.98-4.573 1.48-7 1.5 5.609-3.1 11.609-5.43 18-7Z"/>
  <path fill="#514938" d="M598.5 1368.5c-5.696 2.06-11.696 3.06-18 3 5.723-1.92 11.723-2.92 18-3Z"/>
  <use href="#k" fill="#532e03"/>
  <use href="#l" fill="#703d02"/>
  <path fill="#635844" d="M579.5 1371.5c-.418.72-1.084 1.22-2 1.5a2052.01 2052.01 0 0 1-23 3.5c.418-.72 1.084-1.22 2-1.5l23-3.5z"/>
  <path fill="#af9d78" d="M550.5 1376.5c-5.411 1.74-11.078 2.74-17 3 5.411-1.74 11.078-2.74 17-3Z"/>
  <use href="#l" x="-7" y="3" fill="#754002"/>
  <use href="#k" x="-4" y="5" fill="#4f2b03"/>
  <path fill="#925101" d="M1679.5 1374.5c-.38 3.24-1.55 6.24-3.5 9-.67.75-1.5 1.09-2.5 1 1.5-3.67 3.5-7.01 6-10Z"/>
  <use href="#h" x="-15" y="93" fill="#774102"/>
  <path fill="#673802" d="M819.5 1381.5c-3.132 2.61-6.799 4.28-11 5 3.209-2.43 6.876-4.1 11-5Z"/>
  <use href="#l" x="-36" y="15" fill="#744002"/>
  <path fill="#6e3d02" d="M800.5 1389.5c-2.809 2.4-6.142 3.73-10 4 3.018-1.9 6.351-3.23 10-4Z"/>
  <use href="#k" x="-16" y="19" fill="#4d2b03"/>
  <use href="#f" x="-78" y="119" fill="#6d3c02"/>
  <path fill="#894b01" d="m784.5 1396.5-3 2.5a56.477 56.477 0 0 0-10 2.5c.111-.62.444-1.12 1-1.5a82.206 82.206 0 0 1 12-3.5z"/>
  <path fill="#4b2903" d="M1559.5 1395.5c-1.26 2.93-3.26 5.26-6 7 1.26-2.93 3.26-5.26 6-7Z"/>
  <path fill="#6d3c02" d="M759.5 1405.5c-.558 1.29-1.558 2.12-3 2.5a508.496 508.496 0 0 1-17 5.5c6.352-3.23 13.018-5.9 20-8Z"/>
  <path fill="#743f02" d="M739.5 1413.5c-3.3 2.14-6.967 3.48-11 4 3.16-2.5 6.827-3.83 11-4Z"/>
  <path fill="#884b01" d="M720.5 1420.5c-3.822 2.73-8.156 4.06-13 4 4.135-1.71 8.468-3.04 13-4Z"/>
  <use href="#k" x="67" y="51" fill="#784202"/>
  <path fill="#7d4402" d="M707.5 1424.5c-5.165 3.17-10.831 5.17-17 6 .111-.62.444-1.12 1-1.5 5.259-1.8 10.592-3.3 16-4.5Z"/>
  <path fill="#7f4601" d="M1641.5 1429.5a67.095 67.095 0 0 1-10 12c2.38-4.75 5.72-8.75 10-12Z"/>
  <path fill="#744002" d="M675.5 1434.5c-.652 1.23-1.819 1.89-3.5 2a50.448 50.448 0 0 1-12.5 2c5.076-1.91 10.409-3.24 16-4Z"/>
  <path fill="#5c3201" d="M659.5 1438.5c-2.015 1.42-4.348 2.09-7 2 2.015-1.42 4.348-2.09 7-2Z"/>
  <path fill="#7e4501" d="M652.5 1440.5c-3.855 2.54-8.188 3.54-13 3a156.12 156.12 0 0 1 13-3Z"/>
  <path fill="#8e4e01" d="M621.5 1447.5c-.418.72-1.084 1.22-2 1.5a314.576 314.576 0 0 1-32 4.5 453.102 453.102 0 0 1 34-6Z"/>
  <path fill="#864901" d="M585.5 1453.5c-4.3 1.44-8.633 2.77-13 4-.543-.06-.876-.39-1-1a45.049 45.049 0 0 1 14-3Z"/>
  <path fill="#804601" d="M572.5 1457.5c4.667 2.67 8.333 6.33 11 11-4-3.33-7.667-7-11-11Z"/>
  <path fill="#854a01" d="M1625.5 1448.5c-3.27 4.94-7.27 9.27-12 13 3.27-4.94 7.27-9.27 12-13Z"/>
  <path fill="#723f02" d="M367.5 1457.5c2.897.63 5.564 1.63 8 3-3.216.15-5.883-.85-8-3Z"/>
  <path fill="#643701" d="M384.5 1462.5c2.652-.09 4.985.58 7 2-2.652.09-4.985-.58-7-2Z"/>
  <path fill="#512d03" d="M393.5 1464.5c6.277.08 12.277 1.08 18 3-6.304.06-12.304-.94-18-3Z"/>
  <use href="#m" fill="#321c02"/>
  <path fill="#703d02" d="M584.5 1469.5c3 1 5 3 6 6a25.772 25.772 0 0 1-6-6Z"/>
  <path fill="#502c03" d="M1470.5 1472.5c-1.53 1.87-3.53 3.2-6 4 1.3-2.32 3.3-3.66 6-4Z"/>
  <use href="#n" fill="#4c2a03"/>
  <path fill="#8c4e01" d="M1600.5 1474.5c-8.19 9.74-17.53 18.07-28 25l28-25z"/>
  <path fill="#3d2203" d="M1395.5 1513.5c-4.13 3.06-8.8 5.06-14 6a36.91 36.91 0 0 1 14-6Z"/>
  <use href="#m" x="48" y="67" fill="#995501"/>
  <path fill="#7b4401" d="M527.5 1531.5c5.394 4.39 10.061 9.39 14 15-5.394-4.39-10.061-9.39-14-15Z"/>
  <path fill="#935101" d="M1521.5 1537.5c-1.87 3.51-4.87 5.51-9 6 2.45-2.78 5.45-4.78 9-6Z"/>
  <path fill="#a0906e" d="M657.5 1547.5c3.639 1.64 6.305 4.31 8 8-3-2.33-5.667-5-8-8Z"/>
  <use href="#n" x="53" y="64" fill="#824801"/>
  <path fill="#794301" d="M545.5 1550.5c3.403 2.4 6.07 5.4 8 9-3.403-2.4-6.07-5.4-8-9Z"/>
  <path fill="#443d2f" d="M1302.5 1550.5c-8.59 3.97-17.59 6.97-27 9 8.65-3.81 17.65-6.81 27-9Z"/>
  <path fill="#7f4601" d="M1499.5 1551.5c-.99 1.91-2.65 2.91-5 3 1.16-1.75 2.83-2.75 5-3Zm-5 3c-.99 1.91-2.65 2.91-5 3 1.16-1.75 2.83-2.75 5-3Zm-941 5c4.73 3.73 8.73 8.06 12 13-4.73-3.73-8.73-8.06-12-13Z"/>
  <use href="#o" fill="#82755a"/>
  <path fill="#514938" d="M1259.5 1564.5c-3 1.78-6.34 2.78-10 3 3-1.78 6.34-2.78 10-3Z"/>
  <path fill="#6b6049" d="M1241.5 1569.5c-4.3 2.25-8.97 3.58-14 4 4.37-1.95 9.04-3.28 14-4Z"/>
  <path fill="#8d4e01" d="M1469.5 1568.5c.13.88-.2 1.54-1 2-4.77 2.81-9.77 4.81-15 6 4.98-3.16 10.32-5.83 16-8Z"/>
  <use href="#p" fill="#5a513e"/>
  <path fill="#7d4501" d="M569.5 1576.5c7.058 6.06 13.391 12.72 19 20-7.058-6.06-13.391-12.72-19-20Z"/>
  <path fill="#7f4602" d="M1453.5 1576.5c-1.76 2.06-4.09 3.39-7 4 1.76-2.06 4.09-3.39 7-4Z"/>
  <path fill="#754102" d="M1446.5 1580.5c-2.01 1.57-4.34 2.57-7 3 1.68-2.33 4.01-3.33 7-3Z"/>
  <use href="#o" x="26" y="22" fill="#978868"/>
  <path fill="#3b3529" d="M1181.5 1585.5c-7.43 3.86-15.43 5.86-24 6 7.68-2.84 15.68-4.84 24-6Z"/>
  <path fill="#864a02" d="M1432.5 1586.5c-3.9 3.49-8.57 5.49-14 6 4.34-2.57 9.01-4.57 14-6Z"/>
  <path fill="#443d2f" d="M1157.5 1591.5c-.11.62-.44 1.12-1 1.5-2.98.7-5.98 1.2-9 1.5.11-.62.44-1.12 1-1.5 2.98-.7 5.98-1.2 9-1.5Z"/>
  <use href="#p" x="-84" y="21" fill="#7f7257"/>
  <path fill="#9b5601" d="M1418.5 1592.5c-3.2 3.51-7.2 5.18-12 5 3.7-2.18 7.7-3.85 12-5Z"/>
  <use href="#p" x="-92" y="23" fill="#7c6f55"/>
  <path fill="#3d372b" d="M1124.5 1599.5c-2.46 1.39-5.13 2.56-8 3.5a103.14 103.14 0 0 1-24 4.5c10.39-3.3 21.05-5.96 32-8Z"/>
  <path fill="#794302" d="M1399.5 1600.5c-5.02 3.67-10.69 6.01-17 7 5.26-3.12 10.92-5.46 17-7Z"/>
  <path fill="#723f02" d="M599.5 1607.5c8 7.33 15.667 15 23 23-.739.13-1.406-.04-2-.5a221.376 221.376 0 0 1-21-22.5Z"/>
  <path fill="#363127" d="M1078.5 1610.5c-5.68 3.67-12.01 5.34-19 5 6.11-2.11 12.45-3.78 19-5Z"/>
  <path fill="#ad9c77" d="m748.5 1617.5 10 3c1.921.82 3.254 2.16 4 4-5.162-1.53-9.829-3.87-14-7z"/>
  <path fill="#4a4233" d="m1058.5 1615.5-14 4.5c-2.65.5-5.31.66-8 .5 7.03-2.44 14.37-4.11 22-5z"/>
  <path fill="#764102" d="M1369.5 1612.5c-.11.62-.44 1.12-1 1.5l-29 10.5c.56-1.29 1.56-2.12 3-2.5l27-9.5z"/>
  <path fill="#514938" d="M1034.5 1620.5c-.11.62-.44 1.12-1 1.5-3.99.64-7.99 1.14-12 1.5 4.02-1.87 8.35-2.87 13-3Z"/>
  <path fill="#bfab83" d="M1001.5 1626.5a728.018 728.018 0 0 1-27 5 159.14 159.14 0 0 0 13-4.5 97.7 97.7 0 0 1 14-.5z"/>
  <path fill="#625843" d="M773.5 1628.5c3.895.96 7.561 2.3 11 4-4.208-.18-7.874-1.51-11-4Z"/>
  <path fill="#6f634c" d="M788.5 1633.5c2.398-.24 4.398.43 6 2-2.398.24-4.398-.43-6-2Z"/>
  <path fill="#734002" d="M1337.5 1624.5c-12.73 6.02-26.06 10.69-40 14l40-14z"/>
  <path fill="#958667" d="M794.5 1635.5c2.687-.16 5.354 0 8 .5.556.38.889.88 1 1.5-3.227-.18-6.227-.84-9-2Z"/>
  <path fill="#564d3b" d="M964.5 1633.5c-6.411 1.84-13.078 2.84-20 3 6.411-1.84 13.078-2.84 20-3Z"/>
  <path fill="#998969" d="M803.5 1637.5c4.29-.3 8.29.36 12 2-4.29.3-8.29-.36-12-2Z"/>
  <path fill="#605642" d="M943.5 1636.5c-6.388 2-13.055 3-20 3 6.411-1.84 13.078-2.84 20-3Z"/>
  <path fill="#85785b" d="M815.5 1639.5c6.89.41 13.557 1.41 20 3-5.684-.24-11.351-.74-17-1.5-1.237-.23-2.237-.73-3-1.5Z"/>
  <path fill="#7b6f54" d="M900.5 1641.5c-2.131.81-4.464 1.31-7 1.5-19.504.83-38.838.66-58-.5 21.678.18 43.345-.15 65-1Z"/>
  <path fill="#764102" d="M1284.5 1642.5c-3.95 1.88-8.29 3.22-13 4 3.9-2.4 8.24-3.73 13-4Z"/>
  <path fill="#a15901" d="M1270.5 1646.5c-3.85 3.43-8.51 4.76-14 4 4.29-2.24 8.96-3.58 14-4Z"/>
  <path fill="#834902" d="M1250.5 1651.5c-7.74 4.02-16.07 6.02-25 6 8.12-2.45 16.45-4.45 25-6Z"/>
  <path fill="#9b5601" d="M1225.5 1657.5c-1.98 1.6-4.31 2.77-7 3.5-6.93 1.59-13.93 2.75-21 3.5 9.02-3.11 18.35-5.44 28-7Z"/>
  <path fill="#985401" d="M1196.5 1664.5c-7.81 3.7-16.15 5.7-25 6 8.05-2.74 16.39-4.74 25-6Z"/>
  <path fill="#754102" d="M1132.5 1680.5c-1.6 1.57-3.6 2.24-6 2 1.6-1.57 3.6-2.24 6-2Z"/>
  <path fill="#874b01" d="M1117.5 1684.5c-.47 1.19-1.47 1.86-3 2-3.3.88-6.63 1.55-10 2 3.9-2.4 8.24-3.73 13-4Z"/>
  <path fill="#905001" d="M1081.5 1694.5c-13.25 4.39-26.92 7.39-41 9 .11-.62.44-1.12 1-1.5 13.3-2.83 26.63-5.33 40-7.5Z"/>
  <path fill="#804701" d="M713.5 1698.5c3.443.56 6.443 1.89 9 4-3.521-.6-6.521-1.93-9-4Z"/>
  <path fill="#7a4402" d="M1039.5 1703.5c-5.11 1.54-10.44 2.54-16 3 4.97-2.26 10.31-3.26 16-3Z"/>
  <path fill="#6d3c02" d="M1019.5 1706.5c-.42.72-1.08 1.22-2 1.5l-11 1.5c4.04-1.74 8.38-2.74 13-3z"/>
  <path fill="#603502" d="M738.5 1708.5c2.467.25 4.467 1.25 6 3-2.467-.25-4.467-1.25-6-3Z"/>
  <path fill="#814701" d="M1003.5 1709.5c-4.606 2.38-9.606 3.38-15 3 4.748-1.64 9.748-2.64 15-3Z"/>
  <path fill="#884c01" d="M983.5 1713.5c-6.056 1.95-12.389 2.95-19 3 6.069-1.88 12.402-2.88 19-3Z"/>
  <path fill="#6d3c02" d="M956.5 1717.5c-8.09 2.08-16.424 3.41-25 4 8.055-2.29 16.388-3.62 25-4Z"/>
  <path fill="#8d4e01" d="M758.5 1715.5a192.49 192.49 0 0 0 34 7l27 4c-18.389-.28-36.389-2.78-54-7.5a117.07 117.07 0 0 0-7-3.5z"/>
  <path fill="#985400" d="M931.5 1721.5c-4.419 1.47-9.086 2.14-14 2v-1c4.652-.5 9.319-.83 14-1Z"/>
  <path fill="#321d03" d="M792.5 1722.5a730.61 730.61 0 0 0 85 3v1a438.5 438.5 0 0 1-58 0l-27-4z"/>
  <path fill="#774202" d="M917.5 1722.5v1a302.918 302.918 0 0 1-40 3v-1a742.726 742.726 0 0 0 40-3Z"/>
  <defs>
    <path id="a" d="M1299.5 410.5c5.72-.273 11.05.727 16 3-5.54-.587-10.87-1.587-16-3Z"/>
    <path id="b" d="M929.5 414.5c-2.015 1.424-4.348 2.09-7 2 2.015-1.424 4.348-2.09 7-2Z"/>
    <path id="c" d="M1711.5 690.5c1.42 2.015 2.09 4.348 2 7-1.42-2.015-2.09-4.348-2-7Z"/>
    <path id="d" d="M1666.5 862.5c1.16 2.773 1.82 5.773 2 9-.62-.111-1.12-.444-1.5-1a32.51 32.51 0 0 1-.5-8z"/>
    <path id="e" d="M420.5 905.5c.073 1.527-.594 2.527-2 3-.073-1.527.594-2.527 2-3Z"/>
    <path id="f" d="M868.5 1274.5c-1.533 1.75-3.533 2.75-6 3 1.533-1.75 3.533-2.75 6-3Z"/>
    <path id="g" d="M221.5 1274.5c1.424 2.01 2.09 4.35 2 7-1.424-2.01-2.09-4.35-2-7Z"/>
    <path id="h" d="M844.5 1284.5c-2.112 2.27-4.779 3.6-8 4 2.112-2.27 4.779-3.6 8-4Z"/>
    <path id="i" d="M945.5 1328.5c-2.335 2.66-5.335 4-9 4 2.588-2.09 5.588-3.43 9-4Z"/>
    <path id="j" d="M675.5 1348.5c-1.602 1.57-3.602 2.24-6 2 1.602-1.57 3.602-2.24 6-2Z"/>
    <path id="k" d="M1581.5 1369.5c-.58 2.25-1.91 3.92-4 5 .58-2.25 1.91-3.92 4-5Z"/>
    <path id="l" d="M843.5 1371.5c-1.676 2.33-4.009 3.33-7 3 2.009-1.57 4.343-2.57 7-3Z"/>
    <path id="m" d="M1486.5 1461.5c-1.66 3.24-4.32 5.24-8 6 1.94-2.97 4.61-4.97 8-6Z"/>
    <path id="n" d="M1451.5 1484.5c-.99 1.91-2.65 2.91-5 3 1.16-1.75 2.83-2.75 5-3Z"/>
    <path id="o" d="M673.5 1563.5c2.589.92 4.589 2.59 6 5-2.589-.92-4.589-2.59-6-5Z"/>
    <path id="p" d="M1227.5 1573.5c-2.01 1.42-4.35 2.09-7 2 2.01-1.42 4.35-2.09 7-2Z"/>
  </defs>
</svg>