<svg xmlns="http://www.w3.org/2000/svg" width="2040" height="2040" fill-rule="evenodd" image-rendering="optimizeQuality" shape-rendering="geometricPrecision"><path fill="#cc6700" d="M993.5.5c281.63-2.583 524.96 91.25 730 281.5 182.64 178.147 286.47 394.98 311.5 650.5 18.26 243.34-40.74 465.67-177 667-138.71 195.61-323.21 328.45-553.5 398.5-240.16 66.6-474.494 50.27-703-49Q224.217 1772.72 69 1386.5q-136.942-366.975 0-734Q211.143 296.865 548.5 116 757.98 7.756 993.5.5" opacity=".999"/><path fill="#412401" d="M973.5 73.5c232.11-7.784 440.44 57.716 625 196.5 176.32 139.32 291.16 318.82 344.5 538.5 49.85 232.91 19.18 454.57-92 665-119.69 212.67-294.69 360-525 442q-339.91 111.48-671.5-22.5-277.71-118.22-438.5-373.5c-125.58-207.65-167.91-431.31-127-671Q161.309 482.9 456.5 259q230.78-168.36 517-185.5"/><path fill="#d97800" d="M970.5 88.5c221.68-8.036 422.34 52.131 602 180.5 187.26 141.47 307.1 327.3 359.5 557.5 41.12 206.17 17.45 404.5-71 595-93.4 190.73-234.56 334.56-423.5 431.5-207.18 100.95-422.85 124.29-647 70-231.98-62.1-414.81-192.27-548.5-390.5q-193.08-299.88-143-654Q157.773 526.64 429.5 299q236.55-190.47 541-210.5"/><path fill="#010000" d="M1089.5 393.5q39.015-.22 78 1a1075 1075 0 0 1 49 3c4.42 1.472 9.09 2.138 14 2 3.12.979 6.46 1.313 10 1 9.11 1.968 18.44 3.301 28 4q5.685 1.675 12 2c.42.722 1.08 1.222 2 1.5a348 348 0 0 0 17 2.5c5.13 1.413 10.46 2.413 16 3h1c3.47 1.025 7.14 1.692 11 2 5.13 1.413 10.46 2.413 16 3a282 282 0 0 0 38 6q5.865 1.216 12 3c.92-.043 1.58-.376 2-1q38.325-24.165 81-40.5 126.075-37.589 172.5 85.5a428 428 0 0 1 12 49 83.5 83.5 0 0 0 4.5 12c.76 4.284 2.09 8.284 4 12 3.13 12.058 6.46 24.058 10 36 .74 4.305 2.07 8.305 4 12a46.7 46.7 0 0 1 2 9q.285 5.033 3 9a1744 1744 0 0 0 11 39c.96 4.55 2.3 8.883 4 13 .91 5.993 2.58 11.66 5 17 .13 1.716.46 3.383 1 5-.24 2.398.43 4.398 2 6-.09 2.652.58 4.985 2 7l5 18c-.09 2.652.58 4.985 2 7a435 435 0 0 1 9 36c.79 7.321 2.46 14.321 5 21a526 526 0 0 1 7 40c-.09 2.652.58 4.985 2 7l8 36a32.5 32.5 0 0 0 .5 8q.57.834 1.5 1c-.17 2.121.16 4.121 1 6a192 192 0 0 0 5 24c2.12 8.791 3.78 17.791 5 27 .98 7.858 2.31 15.524 4 23v1a501 501 0 0 0 4 35c.32 9.842.99 19.51 2 29v59c0 9.02-.33 18.02-1 27-1.64 8.12-2.64 16.45-3 25-1.04 4.94-1.71 9.94-2 15-1.72 3.34-2.38 7.01-2 11v1c-1.77 6.12-3.11 12.45-4 19-.65 1.94-.98 3.94-1 6-1.42 2.01-2.09 4.35-2 7-1.42 2.01-2.09 4.35-2 7-.99 3.58-1.65 7.24-2 11l-3 10q-2.955 3.87-3 9l-3 8q-3.855 8.58-6 18c-1.58 1.64-2.25 3.64-2 6-1.41.47-2.07 1.47-2 3v2c-2.33 1.68-3.33 4.01-3 7-.67 0-1 .33-1 1-1.57 1.6-2.24 3.6-2 6-.67 0-1 .33-1 1a99.7 99.7 0 0 0-8 18c-2.78 3.9-4.78 8.24-6 13-1.84 2.35-3.17 5.02-4 8a316 316 0 0 0-15 30c-3.09 3.85-5.43 8.18-7 13a213 213 0 0 0-10 17c-2.5 2.99-4.5 6.33-6 10l-25 36c-2.09 1.08-3.42 2.75-4 5-1.76.76-2.76 2.1-3 4-4.28 3.25-7.62 7.25-10 12-2.74 1.74-4.74 4.07-6 7-4.73 3.73-8.73 8.06-12 13-4.67 4-9 8.33-13 13l-28 25-38 29c-3.39 1.03-6.06 3.03-8 6-2.17.25-3.84 1.25-5 3q-5.325 1.83-9 6a24.8 24.8 0 0 0-8 5c-2.17.25-3.84 1.25-5 3-2.17.25-3.84 1.25-5 3-2.17.25-3.84 1.25-5 3a144.6 144.6 0 0 0-20 11c-5.68 2.17-11.02 4.84-16 8-2.91.61-5.24 1.94-7 4-2.99-.33-5.32.67-7 3-2.66.43-4.99 1.43-7 3-4.99 1.43-9.66 3.43-14 6-4.3 1.15-8.3 2.82-12 5a61 61 0 0 0-7 3c-6.08 1.54-11.74 3.88-17 7a115 115 0 0 0-13 5l-27 9.5c-1.44.38-2.44 1.21-3 2.5h-2l-40 14-13 4c-4.76.27-9.1 1.6-13 4h-1c-5.04.42-9.71 1.76-14 4-2.06.02-4.06.35-6 1-8.55 1.55-16.88 3.55-25 6-9.65 1.56-18.98 3.89-28 7h-1c-8.61 1.26-16.95 3.26-25 6a554 554 0 0 0-39 10c-2.4-.24-4.4.43-6 2-3.28-.08-6.28.59-9 2-4.76.27-9.1 1.6-13 4-7.97 1.24-15.64 3.24-23 6-13.37 2.17-26.7 4.67-40 7.5-.56.38-.89.88-1 1.5h-1c-5.69-.26-11.03.74-16 3h-4c-4.62.26-8.96 1.26-13 3h-3q-7.878.54-15 3c-1.792-.13-3.458.2-5 1q-9.897.18-19 3c-2.706.08-5.373.41-8 1-8.612.38-16.945 1.71-25 4-4.681.17-9.348.5-14 1a743 743 0 0 1-40 3 731 731 0 0 1-85-3 192.5 192.5 0 0 1-34-7 166 166 0 0 0-14-4q-2.3-2.625-6-3a82.8 82.8 0 0 1-16-6c-2.557-2.11-5.557-3.44-9-4-33.625-17.92-63.958-40.58-91-68a373 373 0 0 0-23-23c-3.333-4-7-7.67-11-11-5.609-7.28-11.942-13.94-19-20a11.46 11.46 0 0 0-4-4c-3.27-4.94-7.27-9.27-12-13q-2.895-5.4-8-9a11.46 11.46 0 0 0-4-4q-5.909-8.415-14-15a338 338 0 0 0-27-26.5 1160 1160 0 0 1-45-36q-22.019-.48-44-1.5-8.585-2.88-18-3h-2c-2.015-1.42-4.348-2.09-7-2l-9-2q-3.654-2.055-8-3c-40.079-13.12-72.912-36.46-98.5-70q-24.886-34.77-38.5-75c.09-2.65-.576-4.99-2-7a61.4 61.4 0 0 0-3-13q-.264-4.845-2-9v-2c.09-2.65-.576-4.99-2-7v-5q.427-4.995-2-9a460 460 0 0 1 0-58q3.62-19.29 7-39l2-9q2.361-2.4 2-6c7.951-27.89 20.117-53.56 36.5-77a390 390 0 0 1 54.5-60.5 2107 2107 0 0 0 72-61.5q3.13-1.627 4-5l9-12q2.11-.71 2-3a303 303 0 0 0 10-21q2.11-.71 2-3a20.7 20.7 0 0 0 1-5q3.126-3.83 4-9a600 600 0 0 1 12-37q2.135-3.022 2-7v-1q2.618-2.3 3-6a29.4 29.4 0 0 0 2-7q1.668-3.149 2-7a389.4 389.4 0 0 1 18.5-52q47.364-103.068 131-181a225 225 0 0 1 0-18q23.147-102.486 79-191 41.566-62.902 109.5-95.5 37.29-16.634 78-12 34.596 3.9 66 19 36.989 17.982 70 42a2460 2460 0 0 0 76 56q7.62 1.167 15-.5"/><path fill="#ca6f00" d="M963.5 406.5a360 360 0 0 0-23 6 69 69 0 0 0-11 2q-3.978-.135-7 2-2.398-.401-4 1-3.978-.135-7 2a186 186 0 0 0-19 5q-5.493.335-10 3a1095 1095 0 0 0-61 21q-4.346.944-8 3a84.6 84.6 0 0 0-16 7q-3.884-.058-6 3a590.3 590.3 0 0 0-96.5 53q23.514-76.497 81.5-131.5 24.428-22.467 57-30 25.269-3.087 49 6 44.342 17.654 81 47.5"/><path fill="#804700" d="M1089.5 393.5a866 866 0 0 1 72-.5q3.315.286 6 1.5a2110 2110 0 0 0-78-1"/><path fill="#834901" d="M1216.5 397.5c4.93-.271 9.6.396 14 2-4.91.138-9.58-.528-14-2"/><path fill="#9e5800" d="M1240.5 400.5q13.485 1.318 27 2.5c.56.383.89.883 1 1.5-9.56-.699-18.89-2.032-28-4"/><path fill="#5a3203" d="M1280.5 406.5c6.62.597 12.95 1.931 19 4a348 348 0 0 1-17-2.5c-.92-.278-1.58-.778-2-1.5"/><path fill="#6b3b01" d="M963.5 406.5q.814.09 1 1a192 192 0 0 1-24 5 360 360 0 0 1 23-6"/><path fill="#7f4601" d="M1316.5 413.5c3.99-.384 7.66.283 11 2-3.86-.308-7.53-.975-11-2"/><path fill="#8a4c01" d="M1381.5 424.5c4.8-.15 9.47.516 14 2-.42.624-1.08.957-2 1a158 158 0 0 0-12-3"/><path fill="#502c02" d="M892.5 424.5q-4.507 2.665-10 3 4.507-2.665 10-3"/><path fill="#502c03" d="M821.5 448.5q-3.176 3.232-8 3 3.654-2.056 8-3"/><path fill="#cb6f00" d="m1644.5 762.5 2 2a796 796 0 0 1 12 61c-.09 2.652.58 4.985 2 7a630 630 0 0 0 4 22c-.09 2.652.58 4.985 2 7v1a32.5 32.5 0 0 0 .5 8q.57.834 1.5 1a317 317 0 0 1 6 31 93.2 93.2 0 0 0 3.5 21q.57.834 1.5 1a87.4 87.4 0 0 1 2 13 680 680 0 0 0 7 43v4c.25 5.007.58 10.007 1 15a729 729 0 0 1 0 107v2c-.72.42-1.22 1.08-1.5 2l-1.5 19v2c-.62.11-1.12.44-1.5 1-.5 2.65-.66 5.31-.5 8v1c-1.74 4.04-2.74 8.38-3 13v2c-3.37 6.19-5.37 12.85-6 20a72 72 0 0 1-4 16c-2.62 4.54-4.29 9.54-5 15-1.19 3.8-2.53 7.47-4 11-1.37 2.44-2.37 5.1-3 8-1.88 6.5-4.21 12.84-7 19q-2.625 2.295-3 6c-9.9 24.38-21.56 47.71-35 70-1.75 1.16-2.75 2.83-3 5a1436 1436 0 0 0-21.5 33 31.4 31.4 0 0 0-8.5 10c-2.09 1.08-3.42 2.75-4 5-2.09 1.08-3.42 2.75-4 5a75.4 75.4 0 0 0-8 9c-2.09 1.08-3.42 2.75-4 5a2.99 2.99 0 0 0-2 2c-2.74 1.74-4.74 4.07-6 7a561.6 561.6 0 0 1-67 59c-3.39 1.03-6.06 3.03-8 6-3.04 1.18-5.71 2.85-8 5-2.7.34-4.7 1.68-6 4-4.87 1.93-9.2 4.6-13 8-2.17.25-3.84 1.25-5 3-16.89 8.94-33.89 17.61-51 26a36.9 36.9 0 0 0-14 6c-1.62.54-3.28.87-5 1 26.03-30.36 48.86-63.03 68.5-98 24.08-43.3 34.41-89.63 31-139q-5.385-45.18-33-81a417 417 0 0 0-18-21l-61-59c-20.9-22.13-35.9-47.79-45-77a1657 1657 0 0 1-11-80c-8.77-54.717-30.11-103.717-64-147-19.46-22.634-42.63-40.301-69.5-53a428 428 0 0 1 33-22.5c-30.25-11.515-61.58-16.848-94-16a1752 1752 0 0 1-63 12q-16.575 1.319-33-1a678 678 0 0 0-43-11q-22.61-4.38-38 12.5a995 995 0 0 1-115-10q-.648-12.553-11-19.5a81.3 81.3 0 0 0-19-7 1864 1864 0 0 0-64-6q-48.278-7.178-92-28.5a102 102 0 0 1 12-12q6.908-4.404 12-11 86.862-80.76 198-124a18.5 18.5 0 0 0 6-.5q12.09-5.431 24-10.5h1a830 830 0 0 1 22-5.5l9-4.5a160.6 160.6 0 0 1 27-7 255 255 0 0 0 27-4.5q.834-.574 1-1.5 8.15-2.426 17-3a402 402 0 0 0 30-5c3.23-.914 6.56-1.247 10-1 13.54-.224 26.87-1.224 40-3h2a1630 1630 0 0 1 133 4h5c4.42 1.472 9.09 2.138 14 2a796 796 0 0 1 68 10l6 2q-92.7 60.608-186 120.5c-23.65 21.088-23.98 42.421-1 64 14.32 8.664 28.65 8.664 43 0a2001 2001 0 0 1 113-73 9973 9973 0 0 0 140-95 804 804 0 0 1 80-48c16.84-7.902 34.51-10.902 53-9 17.5 8.843 29.33 22.676 35.5 41.5q11.16 36.391 10.5 74.5a869 869 0 0 1-4.5 72.5 15532 15532 0 0 1-30 231q-4.29 37.213 31.5 47.5 37.035.97 43.5-35.5a7656 7656 0 0 0 16.5-122"/><path fill="#713e02" d="M797.5 458.5q-2.522 2.262-6 3 2.116-3.058 6-3"/><path fill="#6b3b02" d="M1071.5 475.5c-13.13 1.776-26.46 2.776-40 3 13.11-2.008 26.44-3.008 40-3"/><path fill="#6e3c01" d="M1073.5 475.5c42.22-1.72 84.55-.886 127 2.5q3.315.286 6 1.5a1630 1630 0 0 0-133-4m138 4c4.91-.138 9.58.528 14 2-4.91.138-9.58-.528-14-2"/><path fill="#5e3402" d="M1021.5 479.5a402 402 0 0 1-30 5q14.445-4.408 30-5"/><path fill="#9d5600" d="M974.5 487.5q-.166.926-1 1.5a255 255 0 0 1-27 4.5q13.55-4.266 28-6"/><path fill="#6f3d02" d="M1293.5 491.5c2.42-.308 4.76.026 7 1-.12.607-.46.94-1 1z"/><path fill="#915001" d="m919.5 500.5-9 4.5a830 830 0 0 0-22 5.5q14.817-6.77 31-10"/><path fill="#8b4c01" d="M887.5 510.5q-11.91 5.069-24 10.5a18.5 18.5 0 0 1-6 .5 201 201 0 0 1 30-11"/><path fill="#874b00" d="M1665.5 532.5c2.31 3.585 3.64 7.585 4 12-1.91-3.716-3.24-7.716-4-12"/><path d="M1451.5 562.5c13.98-1.537 27.31.629 40 6.5 10.53 6.874 17.69 16.374 21.5 28.5a135.2 135.2 0 0 1 4.5 31.5l-2.5 79.5c-1.15 25.408-7.48 49.408-19 72-15.36 23.095-36.53 31.261-63.5 24.5a485 485 0 0 1-27-12 5675 5675 0 0 1-109-66c-12.39-10.628-16.22-23.795-11.5-39.5a94.4 94.4 0 0 1 9-16c39.47-37.822 82.64-70.655 129.5-98.5 9.11-4.402 18.45-7.902 28-10.5"/><path fill="#955301" d="M1679.5 580.5q.93.166 1.5 1a66.5 66.5 0 0 1 2.5 11c-1.93-3.695-3.26-7.695-4-12"/><path fill="#653803" d="M1685.5 601.5q2.955 3.876 3 9-2.715-3.967-3-9"/><path fill="#925100" d="M1699.5 649.5c2.7 3.772 4.03 8.105 4 13a74 74 0 0 1-4-13"/><path fill="#8c4d01" d="M659.5 645.5q-5.092 6.596-12 11 5.092-6.596 12-11"/><path fill="#905001" d="M1703.5 662.5c2.64 5.271 4.31 10.937 5 17-2.42-5.34-4.09-11.007-5-17"/><path fill="#583103" d="M1709.5 684.5c1.57 1.602 2.24 3.602 2 6-1.57-1.602-2.24-3.602-2-6"/><path fill="#f5dca8" d="M821.5 729.5a995 995 0 0 0 115 10q-13.896 18.164 0 36.5 11.745 8.872 26 13a372 372 0 0 0 49 11q67.815 2.271 132-20a329 329 0 0 0 31-14.5c26.87 12.699 50.04 30.366 69.5 53 33.89 43.283 55.23 92.283 64 147a1657 1657 0 0 0 11 80c9.1 29.21 24.1 54.87 45 77l61 59q9.36 10.215 18 21 27.615 35.82 33 81c3.41 49.37-6.92 95.7-31 139-19.64 34.97-42.47 67.64-68.5 98-6.2 4.46-13.2 7.3-21 8.5l-53 21.5q-14.025 3.285-27 9c-5.62 1.07-10.95 2.73-16 5-3.66.22-7 1.22-10 3-2.93.07-5.59.73-8 2-4.96.72-9.63 2.05-14 4-2.65-.09-4.99.58-7 2a556 556 0 0 0-39 10q-12.48 1.74-24 6-4.53.45-9 1.5c-.56.38-.89.88-1 1.5h-4c-2.65-.09-4.99.58-7 2h-1c-2.65-.09-4.99.58-7 2l-4 1c-10.95 2.04-21.61 4.7-32 8-4.58 1.31-9.24 2.31-14 3-6.55 1.22-12.89 2.89-19 5h-1c-7.63.89-14.97 2.56-22 5h-2c-4.65.13-8.98 1.13-13 3a153 153 0 0 0-20 3 98 98 0 0 0-14 .5 159 159 0 0 1-13 4.5c-3.54.25-6.873.92-10 2q-10.383.24-20 3h-1q-10.383.24-20 3l-23 2c-21.655.85-43.322 1.18-65 1q-9.665-2.385-20-3c-3.71-1.64-7.71-2.3-12-2q-.166-.93-1-1.5a32.5 32.5 0 0 0-8-.5c-1.602-1.57-3.602-2.24-6-2-1.599.27-2.932-.07-4-1a53.8 53.8 0 0 0-11-4 54 54 0 0 1-11-4c-.746-1.84-2.079-3.18-4-4q-5.018-1.5-10-3-23.505-10.545-43-27c-1.411-2.41-3.411-4.08-6-5a32 32 0 0 1-6-3.5q-7.4-6.435-14-13.5c-1.411-2.41-3.411-4.08-6-5l-8-8c-1.695-3.69-4.361-6.36-8-8a119 119 0 0 1-12-14c25.917 2.2 51.584.37 77-5.5 75.409-19.37 143.409-53.04 204-101 21.451-19.77 40.284-41.6 56.5-65.5a239.7 239.7 0 0 0 18.5-37c5.64.96 11.31 1.13 17 .5 2.7-.95 3.53-2.78 2.5-5.5-16.02-9.7-27.357-23.36-34-41q-7.362-27.21-22-51c-8.543-12.08-19.376-14.91-32.5-8.5-8.654 8.46-11.487 18.63-8.5 30.5a292 292 0 0 1-23.5 11c-3.809.83-7.143 2.5-10 5q-11.83 2.925-22 9-3.7.375-6 3a178 178 0 0 1-18 7c-3.221.4-5.888 1.73-8 4-8.467 2.93-16.8 6.27-25 10-3.447.58-6.447 1.92-9 4-.992-.17-1.658.16-2 1q-4.824-.225-8 3h-1c-4.436.91-8.436 2.58-12 5a70.5 70.5 0 0 1-9 3q-3.7.375-6 3a531 531 0 0 0-40 15q-9.023 1.845-17 6l-4 1a217 217 0 0 0-22 8c-2.065.02-4.065.35-6 1-2.398-.24-4.398.43-6 2-2.398-.24-4.398.43-6 2-2.652-.09-4.985.58-7 2-6.31.92-12.31 2.59-18 5h-1c-7.084.44-13.751 2.1-20 5a237 237 0 0 0-19 4q-9.416.12-18 3h-1l-23 3.5q-1.374.42-2 1.5h-4q-8.883.39-17 3c-22.019 4.17-44.353 6.33-67 6.5q40.93-31.425 70.5-73.5c9.716-15.1 16.383-31.43 20-49a99.7 99.7 0 0 0 1.5-19c38.846-41.38 81.179-78.55 127-111.5a1876 1876 0 0 1 124-70q81.945-50.85 3-106-29.487-16.663-63-22a322 322 0 0 0-45-4.5 505.2 505.2 0 0 0-112 17.5 2612 2612 0 0 0-96 30 661 661 0 0 0-33 13.5 228.6 228.6 0 0 0 22-34q5.594-3.215 5-10a167 167 0 0 1 6-13q5.866-11.747 8-25v-1q5.237-9.203 7-20 3.002-5.04 4-11h4q5.009.585 10 1.5l70 1a216.6 216.6 0 0 1 51 11 1456 1456 0 0 0 47 20q26.447 5.64 39.5-17.5 3.37-7.705 2-16-8.452-20.954-28.5-31.5-40.612-23.369-87.5-25.5a1946 1946 0 0 0-82.5 9h-8v-3a386 386 0 0 1 23.5-54 560 560 0 0 1 46.5-66.5q1.5-1 3 0l36 24q25.649 13.818 54 21a430 430 0 0 0 52 11 240 240 0 0 0 31 0q22.798-1.525 37.5-18.5a124 124 0 0 0 5.5-14"/><path fill="#010000" d="M1174.5 765.5a329 329 0 0 1-31 14.5q-64.185 22.271-132 20a372 372 0 0 1-49-11q-14.255-4.128-26-13-13.896-18.336 0-36.5 15.39-16.88 38-12.5a678 678 0 0 1 43 11 150.2 150.2 0 0 0 33 1q31.605-5.423 63-12c32.42-.848 63.75 4.485 94 16a428 428 0 0 0-33 22.5"/><path fill="#603502" d="m1646.5 764.5-2-2a8.4 8.4 0 0 1 .5-4 10.07 10.07 0 0 1 1.5 6"/><path fill="#774202" d="M1729.5 758.5c2.42 6.702 4.09 13.702 5 21-2.54-6.679-4.21-13.679-5-21"/><path fill="#7a4402" d="M446.5 826.5q-.332 3.851-2 7-.494-4.092 2-7"/><path fill="#635944" d="M532.5 826.5v3h8q-4.18 1.465-9 1-.401-2.398 1-4"/><path fill="#683903" d="M442.5 840.5q-.382 3.7-3 6 .382-3.7 3-6"/><path fill="#4f2c04" d="M439.5 847.5q.135 3.978-2 7-.135-3.978 2-7"/><path fill="#010101" d="M972.5 858.5q35.755-2.938 70 7.5a666 666 0 0 1 39 13c26.66 7.947 52.99 6.947 79-3q19.35-4.73 36 6c1.51 2.912.84 5.245-2 7-20.34 14.666-42.67 25.333-67 32a219.5 219.5 0 0 1-41 3.5 779 779 0 0 1-60-4.5q-31.725-2.659-62 7a3002 3002 0 0 0-58 21q-42.876 10.632-38.5-33.5 14.181-34.178 49.5-45.5 27.115-8.417 55-10.5"/><path fill="#958667" d="M519.5 877.5h-4q-.998 5.96-4 11a34.3 34.3 0 0 1 3-11q2.698-1.932 5 0"/><path fill="#804702" d="M1754.5 877.5a52 52 0 0 0 2.5 4c.69 6.694 1.53 13.361 2.5 20a192 192 0 0 1-5-24"/><path fill="#817459" d="M511.5 888.5q-1.763 10.797-7 20a177 177 0 0 1 7-20"/><path fill="#774202" d="M425.5 891.5q-.874 5.17-4 9 .874-5.17 4-9"/><path fill="#633702" d="M420.5 905.5q.11 2.29-2 3-.11-2.29 2-3"/><path fill="#814702" d="M1674.5 902.5c2.41 7.048 4.08 14.381 5 22q-.93-.166-1.5-1a93.2 93.2 0 0 1-3.5-21"/><path fill="#bfab83" d="M504.5 909.5q-2.134 13.253-8 25a232 232 0 0 1 8-25"/><path fill="#613502" d="M408.5 929.5q.11 2.29-2 3-.11-2.29 2-3"/><path fill="#cb7000" d="M558.5 1244.5q-.764-45.78-37-73.5-38.646-25.38-85-30-57.306-4.5-114 4.5a4.95 4.95 0 0 1-3-.5q2.556-3.36 3-7.5c11.938-21.95 27.271-41.28 46-58a84.8 84.8 0 0 0 16-15 1133 1133 0 0 1 61-52c2-1.33 3.667-3 5-5l13-16a661 661 0 0 1 33-13.5 2612 2612 0 0 1 96-30 505.2 505.2 0 0 1 112-17.5 322 322 0 0 1 45 4.5q33.513 5.337 63 22 78.945 55.15-3 106a1876 1876 0 0 0-124 70c-45.821 32.95-88.154 70.12-127 111.5"/><path fill="#894c01" d="M1764.5 928.5q.93.166 1.5 1a149.4 149.4 0 0 1 2.5 22 238 238 0 0 1-4-23"/><path fill="#442603" d="M397.5 944.5q-.87 3.373-4 5 .87-3.373 4-5"/><path fill="#b19f7a" d="M490.5 947.5q.594 6.785-5 10 1.739-5.477 5-10"/><path fill="#603503" d="M1681.5 937.5c3.53 14.01 5.86 28.343 7 43a680 680 0 0 1-7-43"/><path fill="#995501" d="M1768.5 952.5q.93.166 1.5 1l3.5 34h-1a501 501 0 0 1-4-35"/><path fill="#593101" d="M1688.5 984.5c1.39 4.769 2.06 9.769 2 15h-1c-.42-4.993-.75-9.993-1-15"/><path fill="#734001" d="M1772.5 987.5h1c.7 9.651 1.03 19.32 1 29a395 395 0 0 1-2-29"/><path fill="#703d03" d="M450.5 1007.5c-1.333 2-3 3.67-5 5 .667-2.67 2.333-4.33 5-5"/><path fill="#472701" d="M1690.5 1005.5c1.51 5.43 2.18 11.1 2 17-1.24-5.46-1.9-11.13-2-17"/><path fill="#965200" d="M1689.5 999.5h1v6c.1 5.87.76 11.54 2 17 .17 21 0 42-.5 63-.35 7.2-1.18 14.2-2.5 21a729 729 0 0 0 0-107"/><path fill="#8a4c02" d="M1774.5 1016.5c.81 2.13 1.31 4.46 1.5 7q1.005 24 0 48c-.21 1.56-.71 2.89-1.5 4z"/><path fill="#9c5600" d="M384.5 1064.5a84.8 84.8 0 0 1-16 15 84.8 84.8 0 0 1 16-15"/><path fill="#8a4c00" d="M1689.5 1108.5q-.42 10.86-3 21l1.5-19c.28-.92.78-1.58 1.5-2"/><path fill="#9f5800" d="M1773.5 1102.5c.17 5.68 0 11.34-.5 17 .05 3.18-.78 5.84-2.5 8 .36-8.55 1.36-16.88 3-25"/><path fill="#774102" d="M1686.5 1131.5c-.18 3.23-.84 6.23-2 9-.16-2.69 0-5.35.5-8 .38-.56.88-.89 1.5-1m-1364 6q-.444 4.14-3 7.5c.948.48 1.948.65 3 .5q-2.302 1.935-5 0c1.191-3.07 2.858-5.73 5-8"/><path fill="#512d02" d="M1768.5 1142.5c-.31 3.86-.98 7.53-2 11-.38-3.99.28-7.66 2-11"/><path fill="#703e02" d="M230.5 1148.5q.361 3.6-2 6-.361-3.6 2-6"/><path fill="#522d03" d="m1684.5 1141.5-1.5 11c-.28.92-.78 1.58-1.5 2 .26-4.62 1.26-8.96 3-13"/><path fill="#814703" d="M1681.5 1156.5c-1.1 7.09-3.1 13.76-6 20 .63-7.15 2.63-13.81 6-20"/><path fill="#8d4e01" d="M1766.5 1154.5a67.3 67.3 0 0 1-1.5 14c-.1 2.15-.93 3.82-2.5 5 .89-6.55 2.23-12.88 4-19"/><path fill="#744002" d="M226.5 1163.5a2541 2541 0 0 1-7 39q.837-13.605 3.5-27 .732-6.495 3.5-12"/><path fill="#603501" d="M1761.5 1179.5c.09 2.65-.58 4.99-2 7-.09-2.65.58-4.99 2-7"/><path fill="#4a2901" d="M1759.5 1186.5v4l-2 3c-.09-2.65.58-4.99 2-7"/><path fill="#975401" d="M1759.5 1190.5c-.72 4.96-2.05 9.63-4 14 .35-3.76 1.01-7.42 2-11z"/><path fill="#7c4401" d="M1671.5 1192.5c-1.09 5.28-2.76 10.28-5 15 .71-5.46 2.38-10.46 5-15"/><path fill="#754102" d="M1752.5 1214.5q-.285 5.04-3 9 .045-5.13 3-9"/><path fill="#5c3202" d="M1662.5 1218.5c.15 3.22-.85 5.88-3 8 .63-2.9 1.63-5.56 3-8"/><path fill="#8b4d01" d="M1746.5 1231.5a362 362 0 0 1-3.5 15c-.38 1.44-1.21 2.44-2.5 3q2.145-9.42 6-18"/><path fill="#6a3a01" d="M1652.5 1245.5q-.375 3.705-3 6 .375-3.705 3-6"/><path fill="#623702" d="M1738.5 1255.5c.07 1.53-.59 2.53-2 3-.07-1.53.59-2.53 2-3"/><path fill="#3c362a" d="M900.5 1260.5c-2.643 2.96-5.976 4.63-10 5 2.857-2.5 6.191-4.17 10-5"/><path fill="#4c2a02" d="M219.5 1260.5q2.427 4.005 2 9-1.736-4.155-2-9"/><path fill="#7d4502" d="M1736.5 1260.5c-.43 2.66-1.43 4.99-3 7-.33-2.99.67-5.32 3-7"/><path fill="#804702" d="M1732.5 1268.5c.24 2.4-.43 4.4-2 6-.24-2.4.43-4.4 2-6"/><path fill="#824802" d="M1729.5 1275.5q-2.325 8.43-6 16.5c-.34 1.03-1 1.53-2 1.5 2.1-6.33 4.77-12.33 8-18"/><path fill="#814802" d="M223.5 1283.5q1.736 4.155 2 9c-.617-.11-1.117-.44-1.5-1a32.5 32.5 0 0 1-.5-8"/><path fill="#534a39" d="M811.5 1298.5c-2.553 2.08-5.553 3.42-9 4 2.553-2.08 5.553-3.42 9-4"/><path fill="#864a02" d="M1721.5 1293.5c-.67 5.01-2.67 9.34-6 13 1.22-4.76 3.22-9.1 6-13"/><path fill="#6d614a" d="M800.5 1303.5q-3.654 2.055-8 3 3.176-3.225 8-3"/><path fill="#756950" d="M791.5 1306.5c-3.564 2.42-7.564 4.09-12 5 3.564-2.42 7.564-4.09 12-5"/><path fill="#cb6f00" d="M1001.5 1324.5a239.7 239.7 0 0 1-18.5 37c-16.216 23.9-35.049 45.73-56.5 65.5-60.591 47.96-128.591 81.63-204 101-25.416 5.87-51.083 7.7-77 5.5l-55-58c-1-3-3-5-6-6 0-.67-.333-1-1-1-2.667-4.67-6.333-8.33-11-11 4.367-1.23 8.7-2.56 13-4h2a315 315 0 0 0 32-4.5q1.374-.42 2-1.5l18-4q7.218.81 13-3c2.652.09 4.985-.58 7-2a50.5 50.5 0 0 0 12.5-2c1.681-.11 2.848-.77 3.5-2 4.735-1.86 9.735-3.19 15-4q9.253-1.245 17-6c4.844.06 9.178-1.27 13-4q3.276-3.12 8-3c4.033-.52 7.7-1.86 11-4a509 509 0 0 0 17-5.5c1.442-.38 2.442-1.21 3-2.5a44.4 44.4 0 0 1 12-4 56.5 56.5 0 0 1 10-2.5 84 84 0 0 0 3-2.5q3.7-.375 6-3c3.858-.27 7.191-1.6 10-4q4.486.495 7-3h1c4.201-.72 7.868-2.39 11-5h2c3.221-.4 5.888-1.73 8-4q4.486.495 7-3 4.486.495 7-3 3.64-.03 7-1.5c3.937-1.57 7.604-3.4 11-5.5q7.099-1.785 14-4.5c1.593-.95 2.926-2.12 4-3.5q5.124-.045 9-3v-1c5.196.18 9.529-1.48 13-5 3.665 0 6.665-1.34 9-4a53.8 53.8 0 0 1 11-4q3.7-.375 6-3c3.665 0 6.665-1.34 9-4 3.665 0 6.665-1.34 9-4a375 375 0 0 1 29-13 92 92 0 0 0 27 9"/><path fill="#915001" d="M1711.5 1314.5c-3.73 9.83-8.06 19.5-13 29-.46.8-1.12 1.13-2 1q6.765-15.525 15-30"/><path fill="#462704" d="M1614.5 1321.5c-.09 2.35-1.09 4.01-3 5 .25-2.17 1.25-3.84 3-5"/><path fill="#4f4736" d="M724.5 1332.5q-7.958 4.215-17 6 7.977-4.155 17-6"/><path fill="#3d372a" d="M703.5 1339.5c-1.481 1.75-3.481 2.91-6 3.5a163 163 0 0 0-16 4.5 217 217 0 0 1 22-8"/><path fill="#8c4d02" d="M901.5 1347.5c-3.471 3.52-7.804 5.18-13 5 4.155-1.9 8.489-3.57 13-5"/><path fill="#915001" d="M1696.5 1344.5c-1.08 5.17-3.41 9.5-7 13 1.57-4.82 3.91-9.15 7-13"/><path fill="#774102" d="M888.5 1353.5q-3.876 2.955-9 3 3.967-2.715 9-3"/><path fill="#5b523e" d="M656.5 1354.5c-5.69 2.41-11.69 4.08-18 5 5.69-2.41 11.69-4.08 18-5"/><path fill="#804602" d="M879.5 1356.5c-1.074 1.38-2.407 2.55-4 3.5a114 114 0 0 1-14 4.5c5.506-3.62 11.506-6.29 18-8"/><path fill="#4f4736" d="M637.5 1359.5c-6.178 3.13-12.845 4.8-20 5 6.249-2.9 12.916-4.56 20-5"/><path fill="#7a4302" d="M861.5 1364.5c-3.396 2.1-7.063 3.93-11 5.5q-3.36 1.47-7 1.5c5.609-3.1 11.609-5.43 18-7"/><path fill="#514938" d="M598.5 1368.5q-8.544 3.09-18 3 8.584-2.88 18-3"/><path fill="#635844" d="M579.5 1371.5q-.626 1.08-2 1.5a2052 2052 0 0 1-23 3.5q.626-1.08 2-1.5z"/><path fill="#af9d78" d="M550.5 1376.5q-8.117 2.61-17 3 8.117-2.61 17-3"/><path fill="#925101" d="M1679.5 1374.5c-.38 3.24-1.55 6.24-3.5 9-.67.75-1.5 1.09-2.5 1 1.5-3.67 3.5-7.01 6-10"/><path fill="#673802" d="M819.5 1381.5c-3.132 2.61-6.799 4.28-11 5 3.209-2.43 6.876-4.1 11-5"/><path fill="#6e3d02" d="M800.5 1389.5c-2.809 2.4-6.142 3.73-10 4 3.018-1.9 6.351-3.23 10-4"/><path fill="#894b01" d="m784.5 1396.5-3 2.5a56.5 56.5 0 0 0-10 2.5q.166-.93 1-1.5a82 82 0 0 1 12-3.5"/><path fill="#4b2903" d="M1559.5 1395.5c-1.26 2.93-3.26 5.26-6 7 1.26-2.93 3.26-5.26 6-7"/><path fill="#6d3c02" d="M759.5 1405.5c-.558 1.29-1.558 2.12-3 2.5a509 509 0 0 1-17 5.5c6.352-3.23 13.018-5.9 20-8"/><path fill="#743f02" d="M739.5 1413.5c-3.3 2.14-6.967 3.48-11 4 3.16-2.5 6.827-3.83 11-4"/><path fill="#884b01" d="M720.5 1420.5c-3.822 2.73-8.156 4.06-13 4 4.135-1.71 8.468-3.04 13-4"/><path fill="#7d4402" d="M707.5 1424.5q-7.747 4.755-17 6 .166-.93 1-1.5 7.888-2.7 16-4.5"/><path fill="#7f4601" d="M1641.5 1429.5a67 67 0 0 1-10 12c2.38-4.75 5.72-8.75 10-12"/><path fill="#744002" d="M675.5 1434.5c-.652 1.23-1.819 1.89-3.5 2a50.5 50.5 0 0 1-12.5 2c5.076-1.91 10.409-3.24 16-4"/><path fill="#5c3201" d="M659.5 1438.5c-2.015 1.42-4.348 2.09-7 2 2.015-1.42 4.348-2.09 7-2"/><path fill="#7e4501" d="M652.5 1440.5q-5.782 3.81-13 3a156 156 0 0 1 13-3"/><path fill="#8e4e01" d="M621.5 1447.5q-.626 1.08-2 1.5a315 315 0 0 1-32 4.5 453 453 0 0 1 34-6"/><path fill="#864901" d="M585.5 1453.5c-4.3 1.44-8.633 2.77-13 4-.543-.06-.876-.39-1-1a45 45 0 0 1 14-3"/><path fill="#804601" d="M572.5 1457.5c4.667 2.67 8.333 6.33 11 11-4-3.33-7.667-7-11-11"/><path fill="#854a01" d="M1625.5 1448.5c-3.27 4.94-7.27 9.27-12 13 3.27-4.94 7.27-9.27 12-13"/><path fill="#723f02" d="M367.5 1457.5q4.346.945 8 3-4.824.225-8-3"/><path fill="#643701" d="M384.5 1462.5c2.652-.09 4.985.58 7 2-2.652.09-4.985-.58-7-2"/><path fill="#512d03" d="M393.5 1464.5q9.415.12 18 3-9.456.09-18-3"/><path fill="#703d02" d="M584.5 1469.5c3 1 5 3 6 6a25.8 25.8 0 0 1-6-6"/><path fill="#502c03" d="M1470.5 1472.5c-1.53 1.87-3.53 3.2-6 4 1.3-2.32 3.3-3.66 6-4"/><path fill="#8c4e01" d="M1600.5 1474.5c-8.19 9.74-17.53 18.07-28 25z"/><path fill="#3d2203" d="M1395.5 1513.5c-4.13 3.06-8.8 5.06-14 6a36.9 36.9 0 0 1 14-6"/><path fill="#7b4401" d="M527.5 1531.5q8.091 6.585 14 15-8.091-6.585-14-15"/><path fill="#935101" d="M1521.5 1537.5q-2.805 5.265-9 6 3.675-4.17 9-6"/><path fill="#a0906e" d="M657.5 1547.5c3.639 1.64 6.305 4.31 8 8-3-2.33-5.667-5-8-8"/><path fill="#794301" d="M545.5 1550.5q5.105 3.6 8 9-5.105-3.6-8-9"/><path fill="#443d2f" d="M1302.5 1550.5q-12.885 5.955-27 9 12.975-5.715 27-9"/><path fill="#7f4601" d="M1499.5 1551.5c-.99 1.91-2.65 2.91-5 3 1.16-1.75 2.83-2.75 5-3m-5 3c-.99 1.91-2.65 2.91-5 3 1.16-1.75 2.83-2.75 5-3m-941 5c4.73 3.73 8.73 8.06 12 13-4.73-3.73-8.73-8.06-12-13"/><path fill="#514938" d="M1259.5 1564.5c-3 1.78-6.34 2.78-10 3 3-1.78 6.34-2.78 10-3"/><path fill="#6b6049" d="M1241.5 1569.5c-4.3 2.25-8.97 3.58-14 4 4.37-1.95 9.04-3.28 14-4"/><path fill="#8d4e01" d="M1469.5 1568.5c.13.88-.2 1.54-1 2q-7.155 4.215-15 6c4.98-3.16 10.32-5.83 16-8"/><path fill="#7d4501" d="M569.5 1576.5c7.058 6.06 13.391 12.72 19 20-7.058-6.06-13.391-12.72-19-20"/><path fill="#7f4602" d="M1453.5 1576.5c-1.76 2.06-4.09 3.39-7 4 1.76-2.06 4.09-3.39 7-4"/><path fill="#754102" d="M1446.5 1580.5c-2.01 1.57-4.34 2.57-7 3 1.68-2.33 4.01-3.33 7-3"/><path fill="#3b3529" d="M1181.5 1585.5q-11.145 5.79-24 6 11.52-4.26 24-6"/><path fill="#864a02" d="M1432.5 1586.5c-3.9 3.49-8.57 5.49-14 6 4.34-2.57 9.01-4.57 14-6"/><path fill="#443d2f" d="M1157.5 1591.5c-.11.62-.44 1.12-1 1.5q-4.47 1.05-9 1.5c.11-.62.44-1.12 1-1.5q4.47-1.05 9-1.5"/><path fill="#9b5601" d="M1418.5 1592.5c-3.2 3.51-7.2 5.18-12 5 3.7-2.18 7.7-3.85 12-5"/><path fill="#3d372b" d="M1124.5 1599.5c-2.46 1.39-5.13 2.56-8 3.5a103 103 0 0 1-24 4.5c10.39-3.3 21.05-5.96 32-8"/><path fill="#794302" d="M1399.5 1600.5c-5.02 3.67-10.69 6.01-17 7 5.26-3.12 10.92-5.46 17-7"/><path fill="#723f02" d="M599.5 1607.5c8 7.33 15.667 15 23 23-.739.13-1.406-.04-2-.5a221 221 0 0 1-21-22.5"/><path fill="#363127" d="M1078.5 1610.5c-5.68 3.67-12.01 5.34-19 5 6.11-2.11 12.45-3.78 19-5"/><path fill="#ad9c77" d="M748.5 1617.5q4.982 1.5 10 3c1.921.82 3.254 2.16 4 4-5.162-1.53-9.829-3.87-14-7"/><path fill="#4a4233" d="m1058.5 1615.5-14 4.5c-2.65.5-5.31.66-8 .5 7.03-2.44 14.37-4.11 22-5"/><path fill="#764102" d="M1369.5 1612.5c-.11.62-.44 1.12-1 1.5l-29 10.5c.56-1.29 1.56-2.12 3-2.5z"/><path fill="#514938" d="M1034.5 1620.5c-.11.62-.44 1.12-1 1.5q-5.985.96-12 1.5c4.02-1.87 8.35-2.87 13-3"/><path fill="#bfab83" d="M1001.5 1626.5a728 728 0 0 1-27 5q6.5-1.935 13-4.5a98 98 0 0 1 14-.5"/><path fill="#625843" d="M773.5 1628.5c3.895.96 7.561 2.3 11 4-4.208-.18-7.874-1.51-11-4"/><path fill="#6f634c" d="M788.5 1633.5c2.398-.24 4.398.43 6 2-2.398.24-4.398-.43-6-2"/><path fill="#734002" d="M1337.5 1624.5c-12.73 6.02-26.06 10.69-40 14z"/><path fill="#958667" d="M794.5 1635.5c2.687-.16 5.354 0 8 .5q.834.57 1 1.5c-3.227-.18-6.227-.84-9-2"/><path fill="#564d3b" d="M964.5 1633.5q-9.617 2.76-20 3 9.617-2.76 20-3"/><path fill="#998969" d="M803.5 1637.5c4.29-.3 8.29.36 12 2-4.29.3-8.29-.36-12-2"/><path fill="#605642" d="M943.5 1636.5q-9.582 3-20 3 9.617-2.76 20-3"/><path fill="#85785b" d="M815.5 1639.5q10.335.615 20 3-8.526-.36-17-1.5-1.855-.345-3-1.5"/><path fill="#7b6f54" d="M900.5 1641.5q-3.196 1.215-7 1.5c-19.504.83-38.838.66-58-.5 21.678.18 43.345-.15 65-1"/><path fill="#764102" d="M1284.5 1642.5c-3.95 1.88-8.29 3.22-13 4 3.9-2.4 8.24-3.73 13-4"/><path fill="#a15901" d="M1270.5 1646.5c-3.85 3.43-8.51 4.76-14 4 4.29-2.24 8.96-3.58 14-4"/><path fill="#834902" d="M1250.5 1651.5c-7.74 4.02-16.07 6.02-25 6 8.12-2.45 16.45-4.45 25-6"/><path fill="#9b5601" d="M1225.5 1657.5c-1.98 1.6-4.31 2.77-7 3.5-6.93 1.59-13.93 2.75-21 3.5 9.02-3.11 18.35-5.44 28-7"/><path fill="#985401" d="M1196.5 1664.5c-7.81 3.7-16.15 5.7-25 6 8.05-2.74 16.39-4.74 25-6"/><path fill="#754102" d="M1132.5 1680.5c-1.6 1.57-3.6 2.24-6 2 1.6-1.57 3.6-2.24 6-2"/><path fill="#874b01" d="M1117.5 1684.5c-.47 1.19-1.47 1.86-3 2-3.3.88-6.63 1.55-10 2 3.9-2.4 8.24-3.73 13-4"/><path fill="#905001" d="M1081.5 1694.5c-13.25 4.39-26.92 7.39-41 9 .11-.62.44-1.12 1-1.5 13.3-2.83 26.63-5.33 40-7.5"/><path fill="#804701" d="M713.5 1698.5c3.443.56 6.443 1.89 9 4-3.521-.6-6.521-1.93-9-4"/><path fill="#7a4402" d="M1039.5 1703.5c-5.11 1.54-10.44 2.54-16 3 4.97-2.26 10.31-3.26 16-3"/><path fill="#6d3c02" d="M1019.5 1706.5c-.42.72-1.08 1.22-2 1.5l-11 1.5c4.04-1.74 8.38-2.74 13-3"/><path fill="#603502" d="M738.5 1708.5q3.7.375 6 3-3.7-.375-6-3"/><path fill="#814701" d="M1003.5 1709.5q-6.909 3.57-15 3 7.122-2.46 15-3"/><path fill="#884c01" d="M983.5 1713.5q-9.084 2.925-19 3 9.103-2.82 19-3"/><path fill="#6d3c02" d="M956.5 1717.5c-8.09 2.08-16.424 3.41-25 4 8.055-2.29 16.388-3.62 25-4"/><path fill="#8d4e01" d="M758.5 1715.5a192.5 192.5 0 0 0 34 7l27 4q-27.583-.42-54-7.5a117 117 0 0 0-7-3.5"/><path fill="#985400" d="M931.5 1721.5c-4.419 1.47-9.086 2.14-14 2v-1c4.652-.5 9.319-.83 14-1"/><path fill="#321d03" d="M792.5 1722.5a731 731 0 0 0 85 3v1a438.5 438.5 0 0 1-58 0z"/><path fill="#774202" d="M917.5 1722.5v1a303 303 0 0 1-40 3v-1a743 743 0 0 0 40-3"/></svg>