<?xml version="1.0" encoding="UTF-8"?>
<svg viewBox="0 0 510 510" xmlns="http://www.w3.org/2000/svg">
 <g transform="translate(-45 -45)">
  <circle cx="300" cy="300" r="223.4" fill="#fff"/>
  <linearGradient id="a" x1="163.54" x2="469.2" y1="93.484" y2="556.06" gradientUnits="userSpaceOnUse">
   <stop stop-color="#f1d200" offset=".005"/>
   <stop stop-color="#d27d00" offset="1"/>
  </linearGradient>
  <path d="M300 45C159.2 45 45 159.2 45 300s114.2 255 255 255 255-114.2 255-255S440.8 45 300 45m0 451.3c-108.4 0-196.3-87.9-196.3-196.3S191.6 103.7 300 103.7 496.3 191.6 496.3 300 408.4 496.3 300 496.3" fill="url(#a)"/>
  <g fill="#132365">
   <path d="m215 387.2 9.8-19.6h117.7c16.2 0 29.4-13.2 29.4-29.4s-13.2-29.4-29.4-29.4h-98.1v-19.6h98.1c27.1 0 49 22 49 49 0 27.1-22 49-49 49z"/>
   <path d="M342.5 392.6H206.2l15.3-30.5h121.1c13.2 0 24-10.8 24-24s-10.8-24-24-24H239v-30.5h103.5c30 0 54.5 24.4 54.5 54.5s-24.5 54.5-54.5 54.5m-118.7-10.9h118.7c24 0 43.6-19.6 43.6-43.6s-19.6-43.6-43.6-43.6h-92.6v8.7h92.6c19.2 0 34.9 15.6 34.9 34.9 0 19.2-15.6 34.9-34.9 34.9H228.2z"/>
   <path d="m215 209.6 9.8 19.6h104.6c16.2 0 29.4 13.2 29.4 29.4S345.6 288 329.4 288h-75.2v19.6h75.2c27.1 0 49-22 49-49 0-27.1-22-49-49-49z"/>
   <path d="M329.4 313.1h-80.6v-30.5h80.6c13.2 0 24-10.8 24-24s-10.8-24-24-24h-108l-15.3-30.5h123.2c30 0 54.5 24.4 54.5 54.5.1 30-24.3 54.5-54.4 54.5m-69.7-10.9h69.7c24 0 43.6-19.6 43.6-43.6S353.5 215 329.4 215H223.8l4.4 8.7h101.2c19.2 0 34.9 15.6 34.9 34.9s-15.6 34.9-34.9 34.9h-69.7z"/>
   <path d="M244.4 210.6H264v176.5h-19.6z"/>
   <path d="M269.5 392.6H239V205.2h30.5zm-19.6-10.9h8.7V216.1h-8.7z"/>
   <path d="M268.4 180.1H288v39.2h-19.6z"/>
   <use href="#b"/>
   <path d="m310.9 180.1h19.6v39.2h-19.6z"/>
   <use x="42.5" href="#b"/>
   <path d="M268.4 376.3H288v39.2h-19.6z"/>
   <use href="#c"/>
   <path d="m310.9 376.3h19.6v39.2h-19.6z"/>
   <use x="42.5" href="#c"/>
   <path d="M300 473.8c-95.8 0-173.8-77.9-173.8-173.8 0-95.8 77.9-173.8 173.8-173.8 95.8 0 173.8 77.9 173.8 173.8 0 95.8-78 173.8-173.8 173.8m0-330.2c-86.2 0-156.4 70.2-156.4 156.4S213.8 456.4 300 456.4 456.4 386.2 456.4 300 386.2 143.6 300 143.6"/>
  </g>
 </g>
</svg>
