<svg xmlns="http://www.w3.org/2000/svg" viewBox="0 0 1039.8 1039.8">
  <path d="M519.9 0C232.699 0 0 232.8 0 519.9s232.8 519.9 519.9 519.9 519.9-232.8 519.9-519.9S807.1 0 519.9 0z" fill="#06c"/>
  <circle cx="519.9" cy="518.9" r="422.4" fill="#002352"/>
  <path d="m649.8 306.9 15-39.1c1.5-4-1.4-8.2-5.601-8.2H603.5l-17.6 45.8h-24.7l14.399-37.6c1.501-4-1.399-8.2-5.599-8.2h-55.7l-17.6 45.8H322.5c-7.9 0-15.301 4.3-19.2 11.2l-43.4 76.6h325.5c10.8 0 21.5 2 31.5 6.1 19.2 7.9 41.9 25.8 36.2 66.1-9.5 67.5-78.3 187.1-227.601 189l77.201-201c3.2-8.3-2.9-17.1-11.8-17.1H387.4l-125 307.2s25.2 3.1 64.7 3.1l-12.4 32.3h56.9c4.5 0 8.6-2.8 10.3-7l10.701-27.8c8.399-.7 16.9-1.6 25.699-2.6l-14.4 37.4h56.9c4.499 0 8.6-2.8 10.301-7l16.199-42.3c93.5-21.3 194-67.7 253.7-165.6 120.5-197.4-4.7-248.4-91.2-257.1Z" fill="#fff"/>
</svg>