<svg xmlns="http://www.w3.org/2000/svg" viewBox="0 0 1039.8 1039.8"><path fill="#06c" d="M519.9 0C232.7 0 0 232.8 0 519.9s232.8 519.9 519.9 519.9 519.9-232.8 519.9-519.9S807.1 0 519.9 0"/><circle cx="519.9" cy="519.9" r="422.4" fill="#002352"/><path fill="#fff" d="m649.8 307.9 15-39.1c1.5-4-1.4-8.2-5.6-8.2h-55.7l-17.6 45.8h-24.7l14.4-37.6c1.5-4-1.4-8.2-5.6-8.2h-55.7l-17.6 45.8H322.5c-7.9 0-15.3 4.3-19.2 11.2l-43.4 76.6h325.5c10.8 0 21.5 2 31.5 6.1 19.2 7.9 41.9 25.8 36.2 66.1-9.5 67.5-78.3 187.1-227.6 189l77.2-201c3.2-8.3-2.9-17.1-11.8-17.1H387.4l-125 307.2s25.2 3.1 64.7 3.1l-12.4 32.3h56.9c4.5 0 8.6-2.8 10.3-7l10.7-27.8c8.4-.7 16.9-1.6 25.7-2.6l-14.4 37.4h56.9c4.5 0 8.6-2.8 10.3-7l16.2-42.3c93.5-21.3 194-67.7 253.7-165.6 120.5-197.4-4.7-248.4-91.2-257.1"/></svg>