<svg xmlns="http://www.w3.org/2000/svg" viewBox="0 0 557.5 557.5"><circle cx="278.75" cy="278.75" r="278.75" fill="#e62058"/><g fill="#fff"><path d="m353.21 254.75-132.31-.1c-36.07 0-66.07 28.52-67.01 65.19-.03.98.78 1.79 1.76 1.79l132.31.08v.02c36.07 0 66.07-28.52 67.01-65.19.03-.98-.78-1.79-1.76-1.79m67.06-100.44-199.36-.1c-36.07 0-66.07 28.52-67.01 65.19-.03.98.78 1.79 1.76 1.79l199.36.08v.02c36.07 0 66.07-28.52 67.01-65.19.03-.98-.78-1.79-1.76-1.79"/><circle cx="187.42" cy="388.19" r="33.53"/></g></svg>