<svg xmlns="http://www.w3.org/2000/svg" viewBox="0 0 512 512"><rect width="512" height="512" fill="#1a1a1a" rx="256"/><g fill="#fff"><path d="M273.74 65.05v47.32c0 2.63-2.46 4.59-5.01 3.97-4.08-1-8.34-1.53-12.73-1.53s-8.65.53-12.73 1.53c-2.55.63-5.01-1.34-5.01-3.97V65.05c0-9.77 7.92-17.69 17.69-17.69h.1c9.77 0 17.69 7.92 17.69 17.69M256 397.2c4.39 0 8.65-.53 12.73-1.53 2.55-.63 5.01 1.34 5.01 3.97v47.32c0 9.77-7.92 17.69-17.69 17.69h-.1c-9.77 0-17.69-7.92-17.69-17.69v-47.32c0-2.63 2.46-4.59 5.01-3.96 4.08 1 8.34 1.53 12.73 1.53Z"/><rect width="35.48" height="284.04" x="380.17" y="106.56" rx="17.74"/><rect width="35.48" height="129.05" x="309.22" y="67.89" rx="17.74"/><rect width="35.48" height="195.27" x="309.22" y="231.76" rx="17.74"/><rect width="35.48" height="195.27" x="167.3" y="67.89" rx="17.74"/><rect width="35.48" height="284.04" x="96.35" y="106.56" rx="17.74"/><rect width="35.48" height="129.05" x="167.3" y="297.98" rx="17.74"/><path d="M273.74 167.81v65.11c0 5.8-6.99 8.7-11.09 4.64l-19.52-19.52a16.6 16.6 0 0 1-4.87-11.75v-38.84c.24-9.46 7.86-17.08 17.32-17.32h.46c9.77 0 17.69 7.92 17.69 17.69zm0 137.9v39.11c0 9.77-7.92 17.69-17.69 17.69h-.46c-4.73-.12-9-2.09-12.12-5.21a17.72 17.72 0 0 1-5.21-12.12v-66.1c0-5.8 7.02-8.71 11.12-4.61l19.49 19.49a16.63 16.63 0 0 1 4.87 11.75"/></g></svg>