<svg xmlns="http://www.w3.org/2000/svg" viewBox="0 0 48 48">
  <circle cx="24" cy="24" r="24" fill="#ff0420"/>
  <path fill="#fff" d="M17.005 30.379q-2.144 0-3.513-1.009-1.35-1.026-1.35-2.918 0-.397.09-.973a60 60 0 0 1 .666-3.116q1.225-4.954 6.322-4.954 1.388 0 2.486.469 1.1.45 1.73 1.369.63.9.63 2.161 0 .378-.09.955a41 41 0 0 1-.649 3.116q-.63 2.468-2.18 3.693-1.548 1.207-4.142 1.207m.252-2.594q1.01 0 1.711-.595.72-.594 1.027-1.819.414-1.693.63-2.954a4 4 0 0 0 .073-.775q0-1.639-1.712-1.639-1.008 0-1.729.595-.703.594-1.009 1.819-.324 1.208-.648 2.954a4 4 0 0 0-.072.757q0 1.657 1.729 1.657m7.636 2.414a.38.38 0 0 1-.306-.126.43.43 0 0 1-.054-.325l2.486-11.708a.52.52 0 0 1 .198-.325.55.55 0 0 1 .342-.126h4.792q1.999 0 3.206.829 1.225.828 1.225 2.396 0 .45-.108.936-.45 2.072-1.82 3.063-1.35.99-3.71.99h-2.432l-.829 3.945q-.036.198-.198.325c-.162.127-.222.126-.342.126zm6.377-6.881q.756 0 1.315-.415.576-.414.756-1.189.054-.306.054-.54 0-.522-.306-.793-.306-.288-1.045-.288h-2.161l-.685 3.225z"/>
</svg>