<svg xmlns="http://www.w3.org/2000/svg" viewBox="0 0 48 48">
  <circle cx="24" cy="24" r="24" fill="#ff0420"/>
  <path d="M17.005 30.379c-1.43 0-2.6-.336-3.513-1.009-.9-.684-1.35-1.657-1.35-2.918 0-.264.03-.589.09-.973a59.67 59.67 0 0 1 .666-3.116c.816-3.303 2.924-4.954 6.322-4.954.925 0 1.754.156 2.486.469.733.3 1.31.756 1.73 1.369.42.6.63 1.32.63 2.161 0 .252-.03.57-.09.955a40.822 40.822 0 0 1-.649 3.116c-.42 1.645-1.146 2.876-2.18 3.693-1.032.805-2.413 1.207-4.142 1.207zm.252-2.594c.673 0 1.243-.198 1.711-.595.48-.396.823-1.002 1.027-1.819l.63-2.954a4.13 4.13 0 0 0 .073-.775c0-1.092-.57-1.639-1.712-1.639-.672 0-1.249.198-1.729.595-.468.396-.805 1.002-1.009 1.819l-.648 2.954a3.85 3.85 0 0 0-.072.757c0 1.105.576 1.657 1.729 1.657zm7.636 2.414a.381.381 0 0 1-.306-.126.43.43 0 0 1-.054-.325l2.486-11.708a.516.516 0 0 1 .198-.325.55.55 0 0 1 .342-.126h4.792c1.333 0 2.401.277 3.206.829.816.552 1.225 1.351 1.225 2.396 0 .3-.036.612-.108.936-.3 1.381-.907 2.402-1.82 3.063-.9.66-2.137.99-3.71.99h-2.432l-.829 3.945a.52.52 0 0 1-.198.325.543.543 0 0 1-.342.126h-2.45zm6.377-6.881c.504 0 .942-.138 1.315-.415.384-.276.636-.672.756-1.189.036-.204.054-.384.054-.54 0-.348-.102-.612-.306-.793-.204-.192-.552-.288-1.045-.288h-2.161l-.685 3.225h2.072z" fill="#fff"/>
</svg>