<svg xmlns="http://www.w3.org/2000/svg" width="64" height="64" fill="none"><rect width="64" height="64" fill="#6cf9d8" rx="32"/><path fill="#2d2e33" fill-rule="evenodd" d="M46.374 14 50 17.626 37.883 29.742a6.32 6.32 0 0 0-3.625-3.625zM29.742 26.117 17.626 14 14 17.626l12.117 12.116a6.32 6.32 0 0 1 3.625-3.625m-3.625 8.14L14 46.375 17.626 50l12.116-12.117a6.32 6.32 0 0 1-3.625-3.625m8.14 3.626L46.375 50 50 46.374 37.883 34.258a6.32 6.32 0 0 1-3.625 3.625"/><circle cx="54" cy="54" r="10" fill="#ff0420"/><path fill="#fff" d="M50.926 56.704q-.893 0-1.464-.42-.562-.427-.562-1.216 0-.165.037-.405.122-.653.278-1.299.511-2.063 2.634-2.064a2.6 2.6 0 0 1 1.036.196q.459.187.721.57.263.375.262.901 0 .157-.037.397-.11.655-.27 1.299-.263 1.029-.909 1.539-.645.503-1.726.502m.105-1.08q.422 0 .713-.248.3-.248.428-.758.173-.705.263-1.231.03-.16.03-.323 0-.683-.713-.683a1.1 1.1 0 0 0-.721.248q-.293.248-.42.758-.135.504-.27 1.231-.03.156-.03.315 0 .691.72.691m3.182 1.005a.16.16 0 0 1-.127-.052.17.17 0 0 1-.023-.135l1.036-4.879a.2.2 0 0 1 .082-.135.24.24 0 0 1 .143-.053h1.997q.832 0 1.335.346.511.345.511.998 0 .188-.045.39-.188.864-.758 1.276-.564.413-1.547.413h-1.013l-.345 1.644a.2.2 0 0 1-.083.135c-.067.053-.092.052-.142.052zm2.657-2.866a.9.9 0 0 0 .548-.174.8.8 0 0 0 .315-.495q.023-.127.023-.225 0-.218-.128-.33-.127-.12-.436-.12h-.9l-.285 1.344z"/></svg>