<svg xmlns="http://www.w3.org/2000/svg" width="480" height="480" fill="none"><circle cx="240" cy="240" r="240" fill="url(#a)"/><path fill="#00d1ff" d="M160.933 180.329q-3.207-3.673-7.908-3.675H88.921c-.57 0-1.035-.18-1.386-.54-.357-.355-.535-.756-.535-1.186v-43.201q0-.646.535-1.186c.35-.361.817-.541 1.386-.541h67.739c17.093 0 31.84 6.988 44.234 20.952l16.454 20.086-32.052 39.097zm118.386-29.592Q297.91 130 323.765 130h67.527q.853.001 1.282.43.424.435.426 1.297v43.201c0 .43-.144.831-.426 1.186q-.43.54-1.282.54h-64.105q-4.7.002-7.908 3.675l-47.224 57.456 47.437 57.886c2.14 2.308 4.699 3.459 7.695 3.459h64.105q.853 0 1.282.541c.282.361.426.831.426 1.401v43.201a1.87 1.87 0 0 1-.426 1.186q-.43.541-1.282.541h-67.527q-25.856.002-44.233-20.952l-39.316-47.951-39.322 47.951Q182.303 346.002 156.447 346H88.921q-.857 0-1.283-.541c-.287-.36-.425-.825-.425-1.407v-43.201c0-.43.138-.825.425-1.186s.714-.54 1.283-.54h64.104c2.991 0 5.625-1.221 7.908-3.675l46.368-56.59z"/><defs><linearGradient id="a" x1="240" x2="240" y1="0" y2="701.818" gradientUnits="userSpaceOnUse"><stop stop-color="#08021e"/><stop offset="1" stop-color="#1f0777"/></linearGradient></defs><circle cx="405" cy="405" r="75" fill="#ff0420"/><path fill="#fff" d="M383.139 424.933q-6.696 0-10.978-3.152-4.22-3.204-4.219-9.12 0-1.238.281-3.039.912-4.895 2.082-9.739c2.554-10.317 9.139-15.48 19.757-15.48q4.336 0 7.768 1.464 3.439 1.409 5.407 4.28 1.97 2.814 1.969 6.753 0 1.182-.281 2.983a130 130 0 0 1-2.028 9.739q-1.971 7.715-6.813 11.54-4.838 3.772-12.945 3.771m.788-8.105q3.158.001 5.348-1.861 2.25-1.855 3.209-5.683 1.294-5.288 1.969-9.232a12.6 12.6 0 0 0 .227-2.421c0-3.412-1.783-5.122-5.349-5.122q-3.149.001-5.404 1.86-2.197 1.857-3.152 5.683-1.013 3.778-2.025 9.232a12.5 12.5 0 0 0-.225 2.364q0 5.181 5.402 5.18m23.864 7.542a1.18 1.18 0 0 1-.957-.393 1.35 1.35 0 0 1-.168-1.015l7.767-36.589c.073-.403.29-.764.619-1.014a1.73 1.73 0 0 1 1.068-.393h14.977q6.247 0 10.017 2.589 3.831 2.589 3.83 7.489 0 1.405-.338 2.925c-.937 4.318-2.836 7.509-5.687 9.572q-4.22 3.093-11.596 3.093h-7.598l-2.592 12.328a1.6 1.6 0 0 1-.619 1.015c-.506.398-.694.393-1.069.393zm19.926-21.501q2.361 0 4.111-1.299 1.8-1.293 2.363-3.714.168-.956.168-1.687 0-1.631-.956-2.478-.955-.9-3.267-.9h-6.752l-2.14 10.078z"/></svg>