<svg xmlns="http://www.w3.org/2000/svg" width="60" height="60" fill="none"><circle cx="30" cy="30" r="30" fill="#3ceaaa"/><path fill="#000" fill-opacity=".6" fill-rule="evenodd" d="M22.638 15.908a4.675 4.675 0 0 1 6.543 0l4.91 4.81.819-.803a4.675 4.675 0 0 1 6.543 0l4.84 4.742a4.675 4.675 0 0 1 0 6.68l-13.02 12.755a4.675 4.675 0 0 1-6.543 0L13.706 31.336a4.675 4.675 0 0 1 0-6.68zm8.112 8.081-4.84-4.742-8.932 8.75 4.84 4.742zm-5.59 12.022L30 40.753l4.84-4.742L30 31.269zm8.18-8.015 4.841 4.743 4.841-4.742-4.84-4.743z"/></svg>