<svg xmlns="http://www.w3.org/2000/svg" fill-rule="evenodd" stroke-linejoin="round" stroke-miterlimit="1.414" viewBox="0 0 1280 1280"><circle cx="365.958" cy="474.907" r="82.228" fill="#3cb054" transform="translate(-2208.357 -3056.336)scale(7.7833)"/><path fill="#fff" d="M726.986 979.786c-11.396.967-20.426 1.191-25.95 1.202-180.336.364-326.748-146.412-326.748-326.75q0-2.172.028-4.336v-4.594h-.028V298.939h.028c109.436-1.707 379.469 22.136 528.384 229.279 38.556 53.632 61.272 119.4 61.272 190.431 0 42.632-8.184 83.366-23.063 120.717l-.101-.084c-9.546 25.317-34.947 77.48-101.213 110.703-10.664 5.345-21.553 9.779-32.332 13.45 47.559-182.062-14.608-445.825-290.803-572.576 167.738 103.982 300.234 365.82 210.526 588.927"/></svg>