<svg xmlns="http://www.w3.org/2000/svg" width="600" height="600" fill="none"><circle cx="300" cy="300" r="300" fill="#ecfaf6"/><g fill="#00d9a1"><path fill-rule="evenodd" d="M300 598.125c164.65 0 298.125-133.475 298.125-298.125S464.65 1.875 300 1.875 1.875 135.35 1.875 300 135.35 598.125 300 598.125m0 1.875c165.685 0 300-134.315 300-300S465.685 0 300 0 0 134.315 0 300s134.315 300 300 300"/><circle cx="300" cy="300" r="281.25"/></g><g fill="#fff" fill-rule="evenodd"><path d="M300 575.625c152.223 0 275.625-123.402 275.625-275.625S452.223 24.375 300 24.375 24.375 147.777 24.375 300 147.777 575.625 300 575.625m0 5.625c155.33 0 281.25-125.92 281.25-281.25S455.33 18.75 300 18.75 18.75 144.67 18.75 300 144.67 581.25 300 581.25M141.633 140.039c22.755 0 41.202 18.447 41.202 41.202v141.008c0 64.855 52.575 117.431 117.43 117.431s117.43-52.576 117.43-117.431V181.241c0-22.755 18.447-41.202 41.202-41.202v182.21c0 87.61-71.022 158.632-158.632 158.632s-158.632-71.022-158.632-158.632z"/><path d="M212.468 206.911c18.758 0 33.965 15.207 33.965 33.966v5.61c14.854-11.536 33.513-18.405 53.776-18.405 48.459 0 87.743 39.284 87.744 87.743h.001c0 48.46-39.284 87.744-87.744 87.744s-87.743-39.284-87.744-87.743h-.001q0-1.392.043-2.773h-.04zm33.962 108.914h.002c0 29.701 24.077 53.779 53.778 53.779s53.778-24.077 53.779-53.778h-.001c0-29.701-24.078-53.778-53.779-53.778s-53.778 24.076-53.779 53.777"/></g><path fill="#fff" d="M389.626 195.325c0 11.166-9.051 20.218-20.217 20.218s-20.218-9.052-20.218-20.218 9.052-20.218 20.218-20.218 20.217 9.052 20.217 20.218"/></svg>