<svg xmlns="http://www.w3.org/2000/svg" width="1693" height="1710" fill-rule="evenodd"><path fill="#048657" d="M1440.08 245.482a695 695 0 0 0-14.887-13.888l-590.19 825.77L609.49 766.771H242.412L139.25 885.43h191.932l458.237 598.138q22.938 21.795 45.584 21.795t43.185-21.795L1602.73 471.334a814 814 0 0 0-12.98-25.753c65.725 121.509 103.082 260.905 103.082 409.112 0 472.034-378.953 854.693-846.416 854.693S0 1326.727 0 854.693 378.953 0 846.416 0c231.278 0 440.89 93.667 593.663 245.482"/><path fill="#fff" d="m139.25 885.43 103.162-118.66H609.49l225.512 290.594 590.19-825.77q52.721 47.754 98.366 108.973 45.644 61.219 79.172 130.767L878.187 1483.568q-20.538 21.795-43.185 21.795-22.646 0-45.584-21.795L331.181 885.43z"/></svg>