<svg xmlns="http://www.w3.org/2000/svg" width="500" height="500" fill-rule="evenodd" image-rendering="optimizeQuality" shape-rendering="geometricPrecision"><path fill="#228aff" d="M228.5-.5h42q117.82 13.016 186.5 109 36.02 54.314 42.5 119v44q-13.456 117.202-109 185.5-54.753 36.332-120 42.5h-42Q99.684 484.498 32 374.5 4.978 326.194-.5 271.5v-44Q12.956 110.3 108.5 42q54.753-36.332 120-42.5" opacity=".995"/><path fill="#eaf8fe" d="M117.5 152.5h263v41h-263z"/><path fill="#71b4ff" d="M116.5 152.5q132.247-1.499 265-1a463 463 0 0 1-1 43v-42z"/><path fill="#b8dbff" d="M116.5 152.5h1v41h263v1h-264z"/><path fill="#e9f7ff" d="M247.5 225.5a8230 8230 0 0 1 133 131.5 756 756 0 0 1-55 0 8312 8312 0 0 0-77-76.5 8312 8312 0 0 0-77 76.5 756 756 0 0 1-55 0 24340 24340 0 0 0 131-131.5"/></svg>