<svg xmlns="http://www.w3.org/2000/svg" viewBox="0 0 400 400"><rect width="400" height="400" fill="#fecb17" rx="200"/><path fill="#030e24" d="m330.896 106.297-.01.027-26.336 40.785a116.6 116.6 0 0 1 12.625 52.89c0 64.715-52.461 117.176-117.175 117.176-19.013 0-36.952-4.557-52.83-12.594l-40.797 26.368c26.387 18.9 58.694 30.062 93.627 30.062 88.924 0 161.01-72.087 161.01-161.011 0-34.967-11.181-67.303-30.115-93.703zM200 280.633c39.64 0 72.594-28.527 79.512-66.166a185.8 185.8 0 0 0-38.897-4.128c-40.187 0-77.352 12.845-107.702 34.595 14.53 21.536 39.154 35.699 67.087 35.699m39.86-84.999a194 194 0 0 1 41.01 4.394V200c0-44.664-36.207-80.87-80.87-80.87s-80.87 36.206-80.87 80.87c0 3.67.273 7.272.749 10.81l-.025.018c-20.365 15.466-30.022 27.722-30.328 28.114A116.5 116.5 0 0 1 82.825 200c0-64.714 52.46-117.175 117.175-117.175 18.95 0 36.833 4.526 52.672 12.513l40.823-26.382C267.132 50.113 234.875 38.99 200 38.99c-88.923 0-161.01 72.087-161.01 161.01 0 35.792 11.696 68.838 31.455 95.565a194 194 0 0 1 27.533-37.98s15.881-16.573 28.05-24.904c31.951-23.278 71.275-37.046 113.832-37.046z"/></svg>